<svg id="visual" viewBox="0 0 1200 350" width="1200" height="350" xmlns="http://www.w3.org/2000/svg" xmlns:xlink="http://www.w3.org/1999/xlink" version="1.1"><g stroke-width="1" stroke-linejoin="bevel"><path d="M552.3 152.7L439 212.3L528.3 258.3Z" fill="#f3861f" stroke="#f3861f"></path><path d="M552.3 152.7L373 139.7L439 212.3Z" fill="#f7a348" stroke="#f7a348"></path><path d="M403 350L561.3 350L528.3 258.3Z" fill="#fbbd70" stroke="#fbbd70"></path><path d="M528.3 258.3L669.7 241.3L552.3 152.7Z" fill="#f3861f" stroke="#f3861f"></path><path d="M403 350L528.3 258.3L439 212.3Z" fill="#f27c0d" stroke="#f27c0d"></path><path d="M628.7 350L669.7 241.3L528.3 258.3Z" fill="#fcc67d" stroke="#fcc67d"></path><path d="M261.7 245.3L403 350L439 212.3Z" fill="#f9b562" stroke="#f9b562"></path><path d="M561.3 350L628.7 350L528.3 258.3Z" fill="#f3861f" stroke="#f3861f"></path><path d="M669.7 241.3L685.7 115.7L552.3 152.7Z" fill="#fdce8b" stroke="#fdce8b"></path><path d="M552.3 152.7L389 0L373 139.7Z" fill="#ffd699" stroke="#ffd699"></path><path d="M635.7 0L556.3 0L552.3 152.7Z" fill="#fdce8b" stroke="#fdce8b"></path><path d="M556.3 0L389 0L552.3 152.7Z" fill="#f9b562" stroke="#f9b562"></path><path d="M685.7 115.7L635.7 0L552.3 152.7Z" fill="#f4902e" stroke="#f4902e"></path><path d="M268.7 118.7L261.7 245.3L373 139.7Z" fill="#fcc67d" stroke="#fcc67d"></path><path d="M373 139.7L261.7 245.3L439 212.3Z" fill="#f7a348" stroke="#f7a348"></path><path d="M389 0L268.7 118.7L373 139.7Z" fill="#ffd699" stroke="#ffd699"></path><path d="M261.7 245.3L303.7 350L403 350Z" fill="#f7a348" stroke="#f7a348"></path><path d="M788 350L793 204.3L669.7 241.3Z" fill="#f27c0d" stroke="#f27c0d"></path><path d="M669.7 241.3L793 204.3L685.7 115.7Z" fill="#fcc67d" stroke="#fcc67d"></path><path d="M685.7 115.7L769 0L635.7 0Z" fill="#f27c0d" stroke="#f27c0d"></path><path d="M389 0L272.7 0L268.7 118.7Z" fill="#f7a348" stroke="#f7a348"></path><path d="M97.3 256.3L139.3 350L261.7 245.3Z" fill="#f4902e" stroke="#f4902e"></path><path d="M628.7 350L788 350L669.7 241.3Z" fill="#fdce8b" stroke="#fdce8b"></path><path d="M829 117.7L769 0L685.7 115.7Z" fill="#f7a348" stroke="#f7a348"></path><path d="M897.3 135.7L829 117.7L793 204.3Z" fill="#f3861f" stroke="#f3861f"></path><path d="M793 204.3L829 117.7L685.7 115.7Z" fill="#f3861f" stroke="#f3861f"></path><path d="M272.7 0L162.3 0L268.7 118.7Z" fill="#fcc67d" stroke="#fcc67d"></path><path d="M261.7 245.3L139.3 350L303.7 350Z" fill="#ffd699" stroke="#ffd699"></path><path d="M102.3 113.7L261.7 245.3L268.7 118.7Z" fill="#fbbd70" stroke="#fbbd70"></path><path d="M928.3 256.3L897.3 135.7L793 204.3Z" fill="#ffd699" stroke="#ffd699"></path><path d="M829 117.7L927.3 0L769 0Z" fill="#f9b562" stroke="#f9b562"></path><path d="M162.3 0L102.3 113.7L268.7 118.7Z" fill="#f7a348" stroke="#f7a348"></path><path d="M102.3 113.7L97.3 256.3L261.7 245.3Z" fill="#f27c0d" stroke="#f27c0d"></path><path d="M788 350L928.3 256.3L793 204.3Z" fill="#f7a348" stroke="#f7a348"></path><path d="M788 350L928.3 350L928.3 256.3Z" fill="#f27c0d" stroke="#f27c0d"></path><path d="M897.3 135.7L927.3 0L829 117.7Z" fill="#f9b562" stroke="#f9b562"></path><path d="M1061.7 87.7L927.3 0L897.3 135.7Z" fill="#f27c0d" stroke="#f27c0d"></path><path d="M102.3 113.7L0 199.3L97.3 256.3Z" fill="#f69a3b" stroke="#f69a3b"></path><path d="M97.3 256.3L0 350L139.3 350Z" fill="#f69a3b" stroke="#f69a3b"></path><path d="M0 105.7L0 199.3L102.3 113.7Z" fill="#f3861f" stroke="#f3861f"></path><path d="M0 0L0 105.7L102.3 113.7Z" fill="#f8ac55" stroke="#f8ac55"></path><path d="M1026.7 350L1027.7 214.3L928.3 256.3Z" fill="#ffd699" stroke="#ffd699"></path><path d="M928.3 256.3L1027.7 214.3L897.3 135.7Z" fill="#f9b562" stroke="#f9b562"></path><path d="M0 199.3L0 350L97.3 256.3Z" fill="#f27c0d" stroke="#f27c0d"></path><path d="M162.3 0L0 0L102.3 113.7Z" fill="#f27c0d" stroke="#f27c0d"></path><path d="M928.3 350L1026.7 350L928.3 256.3Z" fill="#f3861f" stroke="#f3861f"></path><path d="M1200 126.7L1061.7 87.7L1027.7 214.3Z" fill="#f4902e" stroke="#f4902e"></path><path d="M1027.7 214.3L1061.7 87.7L897.3 135.7Z" fill="#f7a348" stroke="#f7a348"></path><path d="M1200 0L1073.7 0L1061.7 87.7Z" fill="#ffd699" stroke="#ffd699"></path><path d="M1061.7 87.7L1073.7 0L927.3 0Z" fill="#f69a3b" stroke="#f69a3b"></path><path d="M1026.7 350L1200 255.3L1027.7 214.3Z" fill="#f9b562" stroke="#f9b562"></path><path d="M1200 255.3L1200 126.7L1027.7 214.3Z" fill="#f3861f" stroke="#f3861f"></path><path d="M1026.7 350L1200 350L1200 255.3Z" fill="#f9b562" stroke="#f9b562"></path><path d="M1200 126.7L1200 0L1061.7 87.7Z" fill="#fbbd70" stroke="#fbbd70"></path></g></svg>