<svg id="visual" viewBox="0 0 1200 350" width="1200" height="350" xmlns="http://www.w3.org/2000/svg" xmlns:xlink="http://www.w3.org/1999/xlink" version="1.1"><g stroke-width="1" stroke-linejoin="bevel"><path d="M630.7 154.7L540.3 260.3L664.7 198.3Z" fill="#f7a348" stroke="#f7a348"></path><path d="M630.7 154.7L570.3 121.7L540.3 260.3Z" fill="#f27c0d" stroke="#f27c0d"></path><path d="M540.3 260.3L639.7 350L664.7 198.3Z" fill="#f7a348" stroke="#f7a348"></path><path d="M540.3 260.3L528.3 350L639.7 350Z" fill="#f8ac55" stroke="#f8ac55"></path><path d="M570.3 121.7L406 209.3L540.3 260.3Z" fill="#f8ac55" stroke="#f8ac55"></path><path d="M540.3 260.3L399 350L528.3 350Z" fill="#f27c0d" stroke="#f27c0d"></path><path d="M639.7 350L799 231.3L664.7 198.3Z" fill="#f4902e" stroke="#f4902e"></path><path d="M819 100.7L703.7 0L630.7 154.7Z" fill="#f9b562" stroke="#f9b562"></path><path d="M703.7 0L498.3 0L570.3 121.7Z" fill="#f4902e" stroke="#f4902e"></path><path d="M570.3 121.7L412 108.7L406 209.3Z" fill="#fcc67d" stroke="#fcc67d"></path><path d="M703.7 0L570.3 121.7L630.7 154.7Z" fill="#fdce8b" stroke="#fdce8b"></path><path d="M570.3 121.7L498.3 0L412 108.7Z" fill="#fbbd70" stroke="#fbbd70"></path><path d="M406 209.3L399 350L540.3 260.3Z" fill="#f4902e" stroke="#f4902e"></path><path d="M819 100.7L630.7 154.7L664.7 198.3Z" fill="#f4902e" stroke="#f4902e"></path><path d="M799 231.3L819 100.7L664.7 198.3Z" fill="#f3861f" stroke="#f3861f"></path><path d="M639.7 350L810 350L799 231.3Z" fill="#fcc67d" stroke="#fcc67d"></path><path d="M799 231.3L904.3 131.7L819 100.7Z" fill="#fdce8b" stroke="#fdce8b"></path><path d="M819 100.7L760 0L703.7 0Z" fill="#f4902e" stroke="#f4902e"></path><path d="M264.7 218.3L305.7 350L406 209.3Z" fill="#f4902e" stroke="#f4902e"></path><path d="M406 209.3L305.7 350L399 350Z" fill="#f8ac55" stroke="#f8ac55"></path><path d="M498.3 0L373 0L412 108.7Z" fill="#fbbd70" stroke="#fbbd70"></path><path d="M810 350L912.3 232.3L799 231.3Z" fill="#f3861f" stroke="#f3861f"></path><path d="M819 100.7L929.3 0L760 0Z" fill="#f69a3b" stroke="#f69a3b"></path><path d="M264.7 218.3L406 209.3L254.7 140.7Z" fill="#f9b562" stroke="#f9b562"></path><path d="M912.3 232.3L904.3 131.7L799 231.3Z" fill="#fbbd70" stroke="#fbbd70"></path><path d="M254.7 140.7L406 209.3L412 108.7Z" fill="#fdce8b" stroke="#fdce8b"></path><path d="M810 350L917.3 350L912.3 232.3Z" fill="#f69a3b" stroke="#f69a3b"></path><path d="M297.7 0L254.7 140.7L412 108.7Z" fill="#f7a348" stroke="#f7a348"></path><path d="M373 0L297.7 0L412 108.7Z" fill="#ffd699" stroke="#ffd699"></path><path d="M1081.7 102.7L904.3 131.7L912.3 232.3Z" fill="#f27c0d" stroke="#f27c0d"></path><path d="M1081.7 102.7L929.3 0L904.3 131.7Z" fill="#f9b562" stroke="#f9b562"></path><path d="M904.3 131.7L929.3 0L819 100.7Z" fill="#fbbd70" stroke="#fbbd70"></path><path d="M254.7 140.7L123.3 261.3L264.7 218.3Z" fill="#fcc67d" stroke="#fcc67d"></path><path d="M264.7 218.3L135.3 350L305.7 350Z" fill="#f8ac55" stroke="#f8ac55"></path><path d="M115.3 119.7L123.3 261.3L254.7 140.7Z" fill="#fbbd70" stroke="#fbbd70"></path><path d="M123.3 261.3L135.3 350L264.7 218.3Z" fill="#f4902e" stroke="#f4902e"></path><path d="M297.7 0L167.3 0L254.7 140.7Z" fill="#fbbd70" stroke="#fbbd70"></path><path d="M167.3 0L115.3 119.7L254.7 140.7Z" fill="#fbbd70" stroke="#fbbd70"></path><path d="M1100.7 262.3L1081.7 102.7L912.3 232.3Z" fill="#f9b562" stroke="#f9b562"></path><path d="M917.3 350L1100.7 262.3L912.3 232.3Z" fill="#f4902e" stroke="#f4902e"></path><path d="M1084.7 350L1100.7 262.3L917.3 350Z" fill="#f69a3b" stroke="#f69a3b"></path><path d="M1081.7 102.7L1056.7 0L929.3 0Z" fill="#fbbd70" stroke="#fbbd70"></path><path d="M115.3 119.7L0 231.3L123.3 261.3Z" fill="#f4902e" stroke="#f4902e"></path><path d="M123.3 261.3L0 350L135.3 350Z" fill="#fcc67d" stroke="#fcc67d"></path><path d="M0 154.7L0 231.3L115.3 119.7Z" fill="#f4902e" stroke="#f4902e"></path><path d="M0 0L0 154.7L115.3 119.7Z" fill="#f9b562" stroke="#f9b562"></path><path d="M1100.7 262.3L1200 230.3L1081.7 102.7Z" fill="#fcc67d" stroke="#fcc67d"></path><path d="M1081.7 102.7L1200 0L1056.7 0Z" fill="#fbbd70" stroke="#fbbd70"></path><path d="M1200 350L1200 230.3L1100.7 262.3Z" fill="#fcc67d" stroke="#fcc67d"></path><path d="M0 231.3L0 350L123.3 261.3Z" fill="#f3861f" stroke="#f3861f"></path><path d="M1200 230.3L1200 89.7L1081.7 102.7Z" fill="#f4902e" stroke="#f4902e"></path><path d="M1084.7 350L1200 350L1100.7 262.3Z" fill="#f27c0d" stroke="#f27c0d"></path><path d="M167.3 0L0 0L115.3 119.7Z" fill="#f8ac55" stroke="#f8ac55"></path><path d="M1200 89.7L1200 0L1081.7 102.7Z" fill="#fbbd70" stroke="#fbbd70"></path></g></svg>