<svg id="visual" viewBox="0 0 1200 350" width="1200" height="350" xmlns="http://www.w3.org/2000/svg" xmlns:xlink="http://www.w3.org/1999/xlink" version="1.1"><g stroke-width="1" stroke-linejoin="bevel"><path d="M576 158L654 195L625 126Z" fill="#f8ac55" stroke="#f8ac55"></path><path d="M576 158L542 229L654 195Z" fill="#f8ac55" stroke="#f8ac55"></path><path d="M654 195L721 130L625 126Z" fill="#f27c0d" stroke="#f27c0d"></path><path d="M728 293L729 193L654 195Z" fill="#f9b562" stroke="#f9b562"></path><path d="M654 195L729 193L721 130Z" fill="#f27c0d" stroke="#f27c0d"></path><path d="M563 270L642 280L654 195Z" fill="#f69a3b" stroke="#f69a3b"></path><path d="M542 229L563 270L654 195Z" fill="#f9b562" stroke="#f9b562"></path><path d="M620 50L558 68L625 126Z" fill="#f8ac55" stroke="#f8ac55"></path><path d="M625 126L558 68L576 158Z" fill="#f69a3b" stroke="#f69a3b"></path><path d="M576 158L487 217L542 229Z" fill="#f7a348" stroke="#f7a348"></path><path d="M721 130L620 50L625 126Z" fill="#f27c0d" stroke="#f27c0d"></path><path d="M460 121L487 217L576 158Z" fill="#fcc67d" stroke="#fcc67d"></path><path d="M542 229L485 290L563 270Z" fill="#ffd699" stroke="#ffd699"></path><path d="M805 132L734 56L721 130Z" fill="#f27c0d" stroke="#f27c0d"></path><path d="M721 130L734 56L620 50Z" fill="#fcc67d" stroke="#fcc67d"></path><path d="M656 350L728 293L642 280Z" fill="#fbbd70" stroke="#fbbd70"></path><path d="M642 280L728 293L654 195Z" fill="#fbbd70" stroke="#fbbd70"></path><path d="M729 193L805 132L721 130Z" fill="#fdce8b" stroke="#fdce8b"></path><path d="M558 68L460 121L576 158Z" fill="#fcc67d" stroke="#fcc67d"></path><path d="M549 0L487 63L558 68Z" fill="#fbbd70" stroke="#fbbd70"></path><path d="M558 68L487 63L460 121Z" fill="#fbbd70" stroke="#fbbd70"></path><path d="M734 56L651 0L620 50Z" fill="#f69a3b" stroke="#f69a3b"></path><path d="M620 50L549 0L558 68Z" fill="#fcc67d" stroke="#fcc67d"></path><path d="M487 217L485 290L542 229Z" fill="#f9b562" stroke="#f9b562"></path><path d="M577 350L656 350L642 280Z" fill="#f8ac55" stroke="#f8ac55"></path><path d="M393 289L485 290L487 217Z" fill="#f7a348" stroke="#f7a348"></path><path d="M651 0L549 0L620 50Z" fill="#fcc67d" stroke="#fcc67d"></path><path d="M577 350L642 280L563 270Z" fill="#f69a3b" stroke="#f69a3b"></path><path d="M485 290L577 350L563 270Z" fill="#ffd699" stroke="#ffd699"></path><path d="M728 293L799 215L729 193Z" fill="#ffd699" stroke="#ffd699"></path><path d="M799 215L805 132L729 193Z" fill="#fcc67d" stroke="#fcc67d"></path><path d="M811 0L727 0L734 56Z" fill="#fdce8b" stroke="#fdce8b"></path><path d="M734 56L727 0L651 0Z" fill="#fbbd70" stroke="#fbbd70"></path><path d="M549 0L492 0L487 63Z" fill="#fcc67d" stroke="#fcc67d"></path><path d="M487 63L415 87L460 121Z" fill="#ffd699" stroke="#ffd699"></path><path d="M656 350L737 350L728 293Z" fill="#f3861f" stroke="#f3861f"></path><path d="M728 293L799 289L799 215Z" fill="#f7a348" stroke="#f7a348"></path><path d="M737 350L799 289L728 293Z" fill="#f8ac55" stroke="#f8ac55"></path><path d="M880 144L861 87L805 132Z" fill="#fdce8b" stroke="#fdce8b"></path><path d="M418 0L415 87L487 63Z" fill="#f7a348" stroke="#f7a348"></path><path d="M460 121L384 211L487 217Z" fill="#f8ac55" stroke="#f8ac55"></path><path d="M861 87L813 60L805 132Z" fill="#f27c0d" stroke="#f27c0d"></path><path d="M805 132L813 60L734 56Z" fill="#f7a348" stroke="#f7a348"></path><path d="M414 350L480 350L485 290Z" fill="#f4902e" stroke="#f4902e"></path><path d="M485 290L480 350L577 350Z" fill="#f8ac55" stroke="#f8ac55"></path><path d="M382 126L384 211L460 121Z" fill="#f27c0d" stroke="#f27c0d"></path><path d="M415 87L382 126L460 121Z" fill="#fcc67d" stroke="#fcc67d"></path><path d="M384 211L393 289L487 217Z" fill="#f4902e" stroke="#f4902e"></path><path d="M880 144L805 132L799 215Z" fill="#f69a3b" stroke="#f69a3b"></path><path d="M813 60L811 0L734 56Z" fill="#fcc67d" stroke="#fcc67d"></path><path d="M891 0L811 0L813 60Z" fill="#f4902e" stroke="#f4902e"></path><path d="M737 350L806 350L799 289Z" fill="#ffd699" stroke="#ffd699"></path><path d="M886 222L880 144L799 215Z" fill="#f3861f" stroke="#f3861f"></path><path d="M492 0L418 0L487 63Z" fill="#f4902e" stroke="#f4902e"></path><path d="M316 65L314 139L382 126Z" fill="#fbbd70" stroke="#fbbd70"></path><path d="M886 222L799 215L861 299Z" fill="#f3861f" stroke="#f3861f"></path><path d="M861 299L799 215L799 289Z" fill="#f7a348" stroke="#f7a348"></path><path d="M393 289L414 350L485 290Z" fill="#f7a348" stroke="#f7a348"></path><path d="M806 350L861 299L799 289Z" fill="#f27c0d" stroke="#f27c0d"></path><path d="M316 65L382 126L415 87Z" fill="#f3861f" stroke="#f3861f"></path><path d="M382 126L312 190L384 211Z" fill="#f8ac55" stroke="#f8ac55"></path><path d="M384 211L304 290L393 289Z" fill="#ffd699" stroke="#ffd699"></path><path d="M393 289L308 350L414 350Z" fill="#f69a3b" stroke="#f69a3b"></path><path d="M314 139L312 190L382 126Z" fill="#f27c0d" stroke="#f27c0d"></path><path d="M418 0L316 65L415 87Z" fill="#f7a348" stroke="#f7a348"></path><path d="M255 226L304 290L312 190Z" fill="#f69a3b" stroke="#f69a3b"></path><path d="M940 138L861 87L880 144Z" fill="#fbbd70" stroke="#fbbd70"></path><path d="M971 51L891 0L861 87Z" fill="#f8ac55" stroke="#f8ac55"></path><path d="M861 87L891 0L813 60Z" fill="#f8ac55" stroke="#f8ac55"></path><path d="M806 350L884 350L861 299Z" fill="#f4902e" stroke="#f4902e"></path><path d="M954 283L957 194L886 222Z" fill="#f69a3b" stroke="#f69a3b"></path><path d="M957 194L940 138L880 144Z" fill="#fcc67d" stroke="#fcc67d"></path><path d="M957 194L880 144L886 222Z" fill="#f7a348" stroke="#f7a348"></path><path d="M255 226L312 190L229 144Z" fill="#ffd699" stroke="#ffd699"></path><path d="M312 190L304 290L384 211Z" fill="#f3861f" stroke="#f3861f"></path><path d="M954 283L886 222L861 299Z" fill="#f8ac55" stroke="#f8ac55"></path><path d="M418 0L309 0L316 65Z" fill="#f69a3b" stroke="#f69a3b"></path><path d="M229 144L312 190L314 139Z" fill="#ffd699" stroke="#ffd699"></path><path d="M884 350L954 283L861 299Z" fill="#f3861f" stroke="#f3861f"></path><path d="M304 290L308 350L393 289Z" fill="#ffd699" stroke="#ffd699"></path><path d="M229 144L314 139L230 67Z" fill="#ffd699" stroke="#ffd699"></path><path d="M304 290L250 288L308 350Z" fill="#f8ac55" stroke="#f8ac55"></path><path d="M1036 89L971 51L940 138Z" fill="#f69a3b" stroke="#f69a3b"></path><path d="M940 138L971 51L861 87Z" fill="#fdce8b" stroke="#fdce8b"></path><path d="M1036 89L940 138L1057 152Z" fill="#f69a3b" stroke="#f69a3b"></path><path d="M971 51L964 0L891 0Z" fill="#f69a3b" stroke="#f69a3b"></path><path d="M255 226L250 288L304 290Z" fill="#f9b562" stroke="#f9b562"></path><path d="M884 350L962 350L954 283Z" fill="#f8ac55" stroke="#f8ac55"></path><path d="M1057 152L940 138L957 194Z" fill="#fcc67d" stroke="#fcc67d"></path><path d="M230 67L314 139L316 65Z" fill="#fcc67d" stroke="#fcc67d"></path><path d="M255 226L154 283L250 288Z" fill="#f27c0d" stroke="#f27c0d"></path><path d="M250 0L230 67L316 65Z" fill="#f69a3b" stroke="#f69a3b"></path><path d="M309 0L250 0L316 65Z" fill="#f9b562" stroke="#f9b562"></path><path d="M171 350L235 350L250 288Z" fill="#f3861f" stroke="#f3861f"></path><path d="M250 288L235 350L308 350Z" fill="#fdce8b" stroke="#fdce8b"></path><path d="M1055 212L957 194L954 283Z" fill="#f7a348" stroke="#f7a348"></path><path d="M971 51L1021 0L964 0Z" fill="#fdce8b" stroke="#fdce8b"></path><path d="M1036 89L1021 0L971 51Z" fill="#f27c0d" stroke="#f27c0d"></path><path d="M1054 273L1055 212L954 283Z" fill="#ffd699" stroke="#ffd699"></path><path d="M1055 212L1057 152L957 194Z" fill="#fdce8b" stroke="#fdce8b"></path><path d="M1036 89L1126 0L1021 0Z" fill="#f8ac55" stroke="#f8ac55"></path><path d="M1039 350L1054 273L954 283Z" fill="#f27c0d" stroke="#f27c0d"></path><path d="M1055 212L1127 223L1057 152Z" fill="#f8ac55" stroke="#f8ac55"></path><path d="M230 67L167 144L229 144Z" fill="#f27c0d" stroke="#f27c0d"></path><path d="M229 144L145 210L255 226Z" fill="#f69a3b" stroke="#f69a3b"></path><path d="M155 55L167 144L230 67Z" fill="#f3861f" stroke="#f3861f"></path><path d="M962 350L1039 350L954 283Z" fill="#f7a348" stroke="#f7a348"></path><path d="M167 144L145 210L229 144Z" fill="#f4902e" stroke="#f4902e"></path><path d="M157 0L155 55L230 67Z" fill="#fcc67d" stroke="#fcc67d"></path><path d="M167 144L87 141L145 210Z" fill="#f8ac55" stroke="#f8ac55"></path><path d="M145 210L154 283L255 226Z" fill="#f8ac55" stroke="#f8ac55"></path><path d="M154 283L171 350L250 288Z" fill="#f8ac55" stroke="#f8ac55"></path><path d="M250 0L157 0L230 67Z" fill="#fcc67d" stroke="#fcc67d"></path><path d="M155 55L87 141L167 144Z" fill="#f3861f" stroke="#f3861f"></path><path d="M1039 350L1112 296L1054 273Z" fill="#f8ac55" stroke="#f8ac55"></path><path d="M1054 273L1127 223L1055 212Z" fill="#f7a348" stroke="#f7a348"></path><path d="M1057 152L1129 70L1036 89Z" fill="#f69a3b" stroke="#f69a3b"></path><path d="M1112 296L1127 223L1054 273Z" fill="#f7a348" stroke="#f7a348"></path><path d="M1139 137L1129 70L1057 152Z" fill="#f8ac55" stroke="#f8ac55"></path><path d="M1127 223L1139 137L1057 152Z" fill="#fbbd70" stroke="#fbbd70"></path><path d="M70 87L87 141L155 55Z" fill="#fdce8b" stroke="#fdce8b"></path><path d="M145 210L94 274L154 283Z" fill="#f7a348" stroke="#f7a348"></path><path d="M154 283L94 274L171 350Z" fill="#f27c0d" stroke="#f27c0d"></path><path d="M64 227L94 274L145 210Z" fill="#fdce8b" stroke="#fdce8b"></path><path d="M1200 0L1126 0L1129 70Z" fill="#ffd699" stroke="#ffd699"></path><path d="M1129 70L1126 0L1036 89Z" fill="#fbbd70" stroke="#fbbd70"></path><path d="M1200 286L1200 212L1127 223Z" fill="#fbbd70" stroke="#fbbd70"></path><path d="M1127 223L1200 212L1139 137Z" fill="#fbbd70" stroke="#fbbd70"></path><path d="M1039 350L1126 350L1112 296Z" fill="#f27c0d" stroke="#f27c0d"></path><path d="M81 0L70 87L155 55Z" fill="#fdce8b" stroke="#fdce8b"></path><path d="M87 141L64 227L145 210Z" fill="#f69a3b" stroke="#f69a3b"></path><path d="M0 153L64 227L87 141Z" fill="#fdce8b" stroke="#fdce8b"></path><path d="M157 0L81 0L155 55Z" fill="#f8ac55" stroke="#f8ac55"></path><path d="M1200 286L1127 223L1112 296Z" fill="#fbbd70" stroke="#fbbd70"></path><path d="M1139 137L1200 124L1129 70Z" fill="#f9b562" stroke="#f9b562"></path><path d="M1200 212L1200 124L1139 137Z" fill="#fcc67d" stroke="#fcc67d"></path><path d="M0 287L61 350L94 274Z" fill="#f7a348" stroke="#f7a348"></path><path d="M94 274L61 350L171 350Z" fill="#f7a348" stroke="#f7a348"></path><path d="M1200 124L1200 73L1129 70Z" fill="#fcc67d" stroke="#fcc67d"></path><path d="M1126 350L1200 286L1112 296Z" fill="#fbbd70" stroke="#fbbd70"></path><path d="M1200 73L1200 0L1129 70Z" fill="#f27c0d" stroke="#f27c0d"></path><path d="M1126 350L1200 350L1200 286Z" fill="#fdce8b" stroke="#fdce8b"></path><path d="M0 72L0 153L70 87Z" fill="#f7a348" stroke="#f7a348"></path><path d="M70 87L0 153L87 141Z" fill="#f7a348" stroke="#f7a348"></path><path d="M64 227L0 287L94 274Z" fill="#f9b562" stroke="#f9b562"></path><path d="M0 153L0 226L64 227Z" fill="#f8ac55" stroke="#f8ac55"></path><path d="M81 0L0 72L70 87Z" fill="#f8ac55" stroke="#f8ac55"></path><path d="M0 226L0 287L64 227Z" fill="#fbbd70" stroke="#fbbd70"></path><path d="M81 0L0 0L0 72Z" fill="#fdce8b" stroke="#fdce8b"></path><path d="M0 287L0 350L61 350Z" fill="#f27c0d" stroke="#f27c0d"></path></g></svg>