<svg id="visual" viewBox="0 0 1200 350" width="1200" height="350" xmlns="http://www.w3.org/2000/svg" xmlns:xlink="http://www.w3.org/1999/xlink" version="1.1"><g stroke-width="1" stroke-linejoin="bevel"><path d="M579 208L657 198L631 142Z" fill="#f7a348" stroke="#f7a348"></path><path d="M631 142L558 123L579 208Z" fill="#fdce8b" stroke="#fdce8b"></path><path d="M657 198L702 157L631 142Z" fill="#f69a3b" stroke="#f69a3b"></path><path d="M631 142L631 65L558 123Z" fill="#f4902e" stroke="#f4902e"></path><path d="M579 208L634 278L657 198Z" fill="#f4902e" stroke="#f4902e"></path><path d="M657 198L712 212L702 157Z" fill="#fdce8b" stroke="#fdce8b"></path><path d="M705 273L712 212L657 198Z" fill="#f9b562" stroke="#f9b562"></path><path d="M494 271L576 288L579 208Z" fill="#f8ac55" stroke="#f8ac55"></path><path d="M579 208L576 288L634 278Z" fill="#f8ac55" stroke="#f8ac55"></path><path d="M724 87L631 65L631 142Z" fill="#f3861f" stroke="#f3861f"></path><path d="M651 350L705 273L634 278Z" fill="#fcc67d" stroke="#fcc67d"></path><path d="M634 278L705 273L657 198Z" fill="#f4902e" stroke="#f4902e"></path><path d="M631 65L565 61L558 123Z" fill="#f3861f" stroke="#f3861f"></path><path d="M784 150L724 87L702 157Z" fill="#f7a348" stroke="#f7a348"></path><path d="M702 157L724 87L631 142Z" fill="#f7a348" stroke="#f7a348"></path><path d="M474 127L466 193L558 123Z" fill="#fdce8b" stroke="#fdce8b"></path><path d="M558 123L466 193L579 208Z" fill="#f3861f" stroke="#f3861f"></path><path d="M466 193L494 271L579 208Z" fill="#fdce8b" stroke="#fdce8b"></path><path d="M473 86L474 127L558 123Z" fill="#f9b562" stroke="#f9b562"></path><path d="M570 350L651 350L576 288Z" fill="#f3861f" stroke="#f3861f"></path><path d="M576 288L651 350L634 278Z" fill="#f4902e" stroke="#f4902e"></path><path d="M810 219L784 150L712 212Z" fill="#f8ac55" stroke="#f8ac55"></path><path d="M712 212L784 150L702 157Z" fill="#fbbd70" stroke="#fbbd70"></path><path d="M565 61L473 86L558 123Z" fill="#f27c0d" stroke="#f27c0d"></path><path d="M474 127L405 137L466 193Z" fill="#fdce8b" stroke="#fdce8b"></path><path d="M494 271L570 350L576 288Z" fill="#f9b562" stroke="#f9b562"></path><path d="M707 0L631 0L631 65Z" fill="#fbbd70" stroke="#fbbd70"></path><path d="M631 65L631 0L565 61Z" fill="#fdce8b" stroke="#fdce8b"></path><path d="M565 61L495 0L473 86Z" fill="#fbbd70" stroke="#fbbd70"></path><path d="M631 0L552 0L565 61Z" fill="#f9b562" stroke="#f9b562"></path><path d="M819 296L810 219L705 273Z" fill="#fbbd70" stroke="#fbbd70"></path><path d="M705 273L810 219L712 212Z" fill="#fcc67d" stroke="#fcc67d"></path><path d="M651 350L722 350L705 273Z" fill="#fcc67d" stroke="#fcc67d"></path><path d="M795 0L707 0L724 87Z" fill="#fbbd70" stroke="#fbbd70"></path><path d="M724 87L707 0L631 65Z" fill="#f4902e" stroke="#f4902e"></path><path d="M407 57L405 137L473 86Z" fill="#fdce8b" stroke="#fdce8b"></path><path d="M473 86L405 137L474 127Z" fill="#f69a3b" stroke="#f69a3b"></path><path d="M389 283L475 350L494 271Z" fill="#f27c0d" stroke="#f27c0d"></path><path d="M389 283L494 271L466 193Z" fill="#fdce8b" stroke="#fdce8b"></path><path d="M494 271L475 350L570 350Z" fill="#fcc67d" stroke="#fcc67d"></path><path d="M552 0L495 0L565 61Z" fill="#f7a348" stroke="#f7a348"></path><path d="M868 136L817 73L784 150Z" fill="#f7a348" stroke="#f7a348"></path><path d="M784 150L817 73L724 87Z" fill="#ffd699" stroke="#ffd699"></path><path d="M722 350L819 296L705 273Z" fill="#f7a348" stroke="#f7a348"></path><path d="M810 219L868 136L784 150Z" fill="#f8ac55" stroke="#f8ac55"></path><path d="M405 137L382 216L466 193Z" fill="#fdce8b" stroke="#fdce8b"></path><path d="M495 0L407 57L473 86Z" fill="#f9b562" stroke="#f9b562"></path><path d="M405 137L323 143L382 216Z" fill="#ffd699" stroke="#ffd699"></path><path d="M382 216L389 283L466 193Z" fill="#fcc67d" stroke="#fcc67d"></path><path d="M817 73L795 0L724 87Z" fill="#f27c0d" stroke="#f27c0d"></path><path d="M897 222L868 136L810 219Z" fill="#f3861f" stroke="#f3861f"></path><path d="M817 73L894 0L795 0Z" fill="#f8ac55" stroke="#f8ac55"></path><path d="M722 350L818 350L819 296Z" fill="#f9b562" stroke="#f9b562"></path><path d="M819 296L880 274L810 219Z" fill="#f9b562" stroke="#f9b562"></path><path d="M389 283L393 350L475 350Z" fill="#f27c0d" stroke="#f27c0d"></path><path d="M304 350L393 350L389 283Z" fill="#f8ac55" stroke="#f8ac55"></path><path d="M872 350L880 274L819 296Z" fill="#f27c0d" stroke="#f27c0d"></path><path d="M880 274L897 222L810 219Z" fill="#f7a348" stroke="#f7a348"></path><path d="M958 121L885 65L868 136Z" fill="#f4902e" stroke="#f4902e"></path><path d="M868 136L885 65L817 73Z" fill="#f69a3b" stroke="#f69a3b"></path><path d="M329 70L323 143L405 137Z" fill="#f69a3b" stroke="#f69a3b"></path><path d="M382 216L317 268L389 283Z" fill="#f4902e" stroke="#f4902e"></path><path d="M495 0L383 0L407 57Z" fill="#f4902e" stroke="#f4902e"></path><path d="M407 57L329 70L405 137Z" fill="#f3861f" stroke="#f3861f"></path><path d="M323 143L318 213L382 216Z" fill="#f27c0d" stroke="#f27c0d"></path><path d="M971 273L964 216L897 222Z" fill="#f27c0d" stroke="#f27c0d"></path><path d="M818 350L872 350L819 296Z" fill="#f69a3b" stroke="#f69a3b"></path><path d="M383 0L329 70L407 57Z" fill="#f3861f" stroke="#f3861f"></path><path d="M318 213L317 268L382 216Z" fill="#f9b562" stroke="#f9b562"></path><path d="M951 67L894 0L885 65Z" fill="#fcc67d" stroke="#fcc67d"></path><path d="M885 65L894 0L817 73Z" fill="#f27c0d" stroke="#f27c0d"></path><path d="M897 222L958 121L868 136Z" fill="#f27c0d" stroke="#f27c0d"></path><path d="M964 216L958 121L897 222Z" fill="#f9b562" stroke="#f9b562"></path><path d="M971 273L897 222L880 274Z" fill="#f8ac55" stroke="#f8ac55"></path><path d="M252 201L317 268L318 213Z" fill="#f9b562" stroke="#f9b562"></path><path d="M245 294L304 350L317 268Z" fill="#f9b562" stroke="#f9b562"></path><path d="M317 268L304 350L389 283Z" fill="#ffd699" stroke="#ffd699"></path><path d="M252 201L318 213L323 143Z" fill="#f3861f" stroke="#f3861f"></path><path d="M958 121L951 67L885 65Z" fill="#f8ac55" stroke="#f8ac55"></path><path d="M383 0L303 0L329 70Z" fill="#fbbd70" stroke="#fbbd70"></path><path d="M245 139L252 201L323 143Z" fill="#f8ac55" stroke="#f8ac55"></path><path d="M245 139L323 143L329 70Z" fill="#f27c0d" stroke="#f27c0d"></path><path d="M947 350L971 273L880 274Z" fill="#fcc67d" stroke="#fcc67d"></path><path d="M964 216L1038 134L958 121Z" fill="#f9b562" stroke="#f9b562"></path><path d="M872 350L947 350L880 274Z" fill="#f8ac55" stroke="#f8ac55"></path><path d="M232 57L245 139L329 70Z" fill="#fdce8b" stroke="#fdce8b"></path><path d="M1055 0L946 0L951 67Z" fill="#f7a348" stroke="#f7a348"></path><path d="M951 67L946 0L894 0Z" fill="#f4902e" stroke="#f4902e"></path><path d="M172 280L245 294L252 201Z" fill="#f69a3b" stroke="#f69a3b"></path><path d="M252 201L245 294L317 268Z" fill="#f4902e" stroke="#f4902e"></path><path d="M245 294L249 350L304 350Z" fill="#ffd699" stroke="#ffd699"></path><path d="M303 0L232 57L329 70Z" fill="#fdce8b" stroke="#fdce8b"></path><path d="M147 128L150 228L252 201Z" fill="#f7a348" stroke="#f7a348"></path><path d="M303 0L243 0L232 57Z" fill="#f7a348" stroke="#f7a348"></path><path d="M1047 214L1038 134L964 216Z" fill="#fbbd70" stroke="#fbbd70"></path><path d="M958 121L1055 80L951 67Z" fill="#fdce8b" stroke="#fdce8b"></path><path d="M1047 214L964 216L971 273Z" fill="#f7a348" stroke="#f7a348"></path><path d="M1046 289L1047 214L971 273Z" fill="#f9b562" stroke="#f9b562"></path><path d="M947 350L1024 350L971 273Z" fill="#fbbd70" stroke="#fbbd70"></path><path d="M1024 350L1046 289L971 273Z" fill="#fdce8b" stroke="#fdce8b"></path><path d="M144 0L175 88L232 57Z" fill="#ffd699" stroke="#ffd699"></path><path d="M232 57L175 88L245 139Z" fill="#f27c0d" stroke="#f27c0d"></path><path d="M245 294L157 350L249 350Z" fill="#f69a3b" stroke="#f69a3b"></path><path d="M1123 148L1055 80L1038 134Z" fill="#f4902e" stroke="#f4902e"></path><path d="M1038 134L1055 80L958 121Z" fill="#fcc67d" stroke="#fcc67d"></path><path d="M1123 148L1038 134L1047 214Z" fill="#fdce8b" stroke="#fdce8b"></path><path d="M150 228L172 280L252 201Z" fill="#f3861f" stroke="#f3861f"></path><path d="M147 128L252 201L245 139Z" fill="#fcc67d" stroke="#fcc67d"></path><path d="M175 88L147 128L245 139Z" fill="#f8ac55" stroke="#f8ac55"></path><path d="M1055 80L1055 0L951 67Z" fill="#f4902e" stroke="#f4902e"></path><path d="M72 290L157 350L172 280Z" fill="#f3861f" stroke="#f3861f"></path><path d="M172 280L157 350L245 294Z" fill="#f69a3b" stroke="#f69a3b"></path><path d="M1120 350L1101 272L1046 289Z" fill="#f69a3b" stroke="#f69a3b"></path><path d="M1046 289L1101 272L1047 214Z" fill="#f9b562" stroke="#f9b562"></path><path d="M1055 80L1133 55L1055 0Z" fill="#fdce8b" stroke="#fdce8b"></path><path d="M243 0L144 0L232 57Z" fill="#f4902e" stroke="#f4902e"></path><path d="M175 88L83 88L147 128Z" fill="#ffd699" stroke="#ffd699"></path><path d="M1124 223L1123 148L1047 214Z" fill="#fcc67d" stroke="#fcc67d"></path><path d="M1101 272L1124 223L1047 214Z" fill="#ffd699" stroke="#ffd699"></path><path d="M83 88L95 155L147 128Z" fill="#f4902e" stroke="#f4902e"></path><path d="M147 128L95 155L150 228Z" fill="#f8ac55" stroke="#f8ac55"></path><path d="M150 228L72 290L172 280Z" fill="#fdce8b" stroke="#fdce8b"></path><path d="M95 155L94 210L150 228Z" fill="#f9b562" stroke="#f9b562"></path><path d="M1024 350L1120 350L1046 289Z" fill="#f9b562" stroke="#f9b562"></path><path d="M1200 287L1200 222L1124 223Z" fill="#f7a348" stroke="#f7a348"></path><path d="M1200 71L1133 55L1123 148Z" fill="#f27c0d" stroke="#f27c0d"></path><path d="M1123 148L1133 55L1055 80Z" fill="#f8ac55" stroke="#f8ac55"></path><path d="M1200 159L1123 148L1124 223Z" fill="#fcc67d" stroke="#fcc67d"></path><path d="M144 0L83 88L175 88Z" fill="#f69a3b" stroke="#f69a3b"></path><path d="M0 211L72 290L94 210Z" fill="#fcc67d" stroke="#fcc67d"></path><path d="M1133 55L1131 0L1055 0Z" fill="#f8ac55" stroke="#f8ac55"></path><path d="M0 157L94 210L95 155Z" fill="#fdce8b" stroke="#fdce8b"></path><path d="M94 210L72 290L150 228Z" fill="#fdce8b" stroke="#fdce8b"></path><path d="M72 290L71 350L157 350Z" fill="#f4902e" stroke="#f4902e"></path><path d="M144 0L74 0L83 88Z" fill="#f69a3b" stroke="#f69a3b"></path><path d="M83 88L0 157L95 155Z" fill="#f3861f" stroke="#f3861f"></path><path d="M72 290L0 350L71 350Z" fill="#ffd699" stroke="#ffd699"></path><path d="M1200 222L1200 159L1124 223Z" fill="#fbbd70" stroke="#fbbd70"></path><path d="M1133 55L1200 0L1131 0Z" fill="#fdce8b" stroke="#fdce8b"></path><path d="M1200 287L1124 223L1101 272Z" fill="#f4902e" stroke="#f4902e"></path><path d="M1120 350L1200 287L1101 272Z" fill="#fdce8b" stroke="#fdce8b"></path><path d="M1200 159L1200 71L1123 148Z" fill="#f4902e" stroke="#f4902e"></path><path d="M1120 350L1200 350L1200 287Z" fill="#f8ac55" stroke="#f8ac55"></path><path d="M1200 71L1200 0L1133 55Z" fill="#f3861f" stroke="#f3861f"></path><path d="M0 75L0 157L83 88Z" fill="#f27c0d" stroke="#f27c0d"></path><path d="M0 157L0 211L94 210Z" fill="#f4902e" stroke="#f4902e"></path><path d="M0 211L0 288L72 290Z" fill="#f9b562" stroke="#f9b562"></path><path d="M74 0L0 75L83 88Z" fill="#f4902e" stroke="#f4902e"></path><path d="M0 288L0 350L72 290Z" fill="#f69a3b" stroke="#f69a3b"></path><path d="M74 0L0 0L0 75Z" fill="#ffd699" stroke="#ffd699"></path></g></svg>