<svg id="visual" viewBox="0 0 1200 350" width="1200" height="350" xmlns="http://www.w3.org/2000/svg" xmlns:xlink="http://www.w3.org/1999/xlink" version="1.1"><g stroke-width="1" stroke-linejoin="bevel"><path d="M572 203L634 201L577 124Z" fill="#f3861f" stroke="#f3861f"></path><path d="M634 201L647 133L577 124Z" fill="#f4902e" stroke="#f4902e"></path><path d="M653 53L552 83L577 124Z" fill="#f8ac55" stroke="#f8ac55"></path><path d="M577 124L486 155L572 203Z" fill="#ffd699" stroke="#ffd699"></path><path d="M482 206L549 268L572 203Z" fill="#f27c0d" stroke="#f27c0d"></path><path d="M572 203L635 285L634 201Z" fill="#f9b562" stroke="#f9b562"></path><path d="M552 83L486 155L577 124Z" fill="#fcc67d" stroke="#fcc67d"></path><path d="M635 285L708 223L634 201Z" fill="#fbbd70" stroke="#fbbd70"></path><path d="M634 201L708 223L647 133Z" fill="#fcc67d" stroke="#fcc67d"></path><path d="M707 89L653 53L647 133Z" fill="#f7a348" stroke="#f7a348"></path><path d="M647 133L653 53L577 124Z" fill="#fbbd70" stroke="#fbbd70"></path><path d="M549 268L635 285L572 203Z" fill="#ffd699" stroke="#ffd699"></path><path d="M486 155L482 206L572 203Z" fill="#f8ac55" stroke="#f8ac55"></path><path d="M708 223L729 144L647 133Z" fill="#f9b562" stroke="#f9b562"></path><path d="M729 144L707 89L647 133Z" fill="#f3861f" stroke="#f3861f"></path><path d="M540 0L479 76L552 83Z" fill="#f9b562" stroke="#f9b562"></path><path d="M552 83L479 76L486 155Z" fill="#fbbd70" stroke="#fbbd70"></path><path d="M486 155L391 195L482 206Z" fill="#ffd699" stroke="#ffd699"></path><path d="M635 285L703 296L708 223Z" fill="#f8ac55" stroke="#f8ac55"></path><path d="M818 142L783 81L729 144Z" fill="#f9b562" stroke="#f9b562"></path><path d="M721 0L630 0L653 53Z" fill="#f27c0d" stroke="#f27c0d"></path><path d="M653 53L630 0L552 83Z" fill="#f7a348" stroke="#f7a348"></path><path d="M482 206L481 288L549 268Z" fill="#f8ac55" stroke="#f8ac55"></path><path d="M549 268L571 350L635 285Z" fill="#f4902e" stroke="#f4902e"></path><path d="M635 285L658 350L703 296Z" fill="#f8ac55" stroke="#f8ac55"></path><path d="M401 268L481 288L482 206Z" fill="#fbbd70" stroke="#fbbd70"></path><path d="M630 0L540 0L552 83Z" fill="#f4902e" stroke="#f4902e"></path><path d="M481 288L571 350L549 268Z" fill="#f9b562" stroke="#f9b562"></path><path d="M571 350L658 350L635 285Z" fill="#fbbd70" stroke="#fbbd70"></path><path d="M383 65L411 128L479 76Z" fill="#f8ac55" stroke="#f8ac55"></path><path d="M479 76L411 128L486 155Z" fill="#f69a3b" stroke="#f69a3b"></path><path d="M809 216L729 144L708 223Z" fill="#f3861f" stroke="#f3861f"></path><path d="M729 144L783 81L707 89Z" fill="#f7a348" stroke="#f7a348"></path><path d="M707 89L721 0L653 53Z" fill="#f69a3b" stroke="#f69a3b"></path><path d="M783 81L721 0L707 89Z" fill="#f3861f" stroke="#f3861f"></path><path d="M540 0L471 0L479 76Z" fill="#fbbd70" stroke="#fbbd70"></path><path d="M411 128L391 195L486 155Z" fill="#f27c0d" stroke="#f27c0d"></path><path d="M794 298L708 223L703 296Z" fill="#f4902e" stroke="#f4902e"></path><path d="M794 298L809 216L708 223Z" fill="#f4902e" stroke="#f4902e"></path><path d="M809 216L818 142L729 144Z" fill="#fdce8b" stroke="#fdce8b"></path><path d="M658 350L723 350L703 296Z" fill="#f69a3b" stroke="#f69a3b"></path><path d="M391 195L401 268L482 206Z" fill="#f27c0d" stroke="#f27c0d"></path><path d="M481 288L470 350L571 350Z" fill="#f9b562" stroke="#f9b562"></path><path d="M401 268L470 350L481 288Z" fill="#ffd699" stroke="#ffd699"></path><path d="M723 350L794 298L703 296Z" fill="#f4902e" stroke="#f4902e"></path><path d="M411 0L383 65L479 76Z" fill="#ffd699" stroke="#ffd699"></path><path d="M411 128L339 159L391 195Z" fill="#f7a348" stroke="#f7a348"></path><path d="M471 0L411 0L479 76Z" fill="#f3861f" stroke="#f3861f"></path><path d="M783 81L801 0L721 0Z" fill="#f4902e" stroke="#f4902e"></path><path d="M872 0L801 0L783 81Z" fill="#f4902e" stroke="#f4902e"></path><path d="M332 50L339 159L383 65Z" fill="#fcc67d" stroke="#fcc67d"></path><path d="M383 65L339 159L411 128Z" fill="#fcc67d" stroke="#fcc67d"></path><path d="M391 195L328 223L401 268Z" fill="#fbbd70" stroke="#fbbd70"></path><path d="M872 225L874 129L818 142Z" fill="#f7a348" stroke="#f7a348"></path><path d="M818 142L874 129L783 81Z" fill="#fcc67d" stroke="#fcc67d"></path><path d="M872 225L818 142L809 216Z" fill="#f4902e" stroke="#f4902e"></path><path d="M875 262L872 225L809 216Z" fill="#f7a348" stroke="#f7a348"></path><path d="M339 159L328 223L391 195Z" fill="#f7a348" stroke="#f7a348"></path><path d="M401 268L382 350L470 350Z" fill="#ffd699" stroke="#ffd699"></path><path d="M723 350L816 350L794 298Z" fill="#f3861f" stroke="#f3861f"></path><path d="M794 298L875 262L809 216Z" fill="#f27c0d" stroke="#f27c0d"></path><path d="M328 223L332 263L401 268Z" fill="#ffd699" stroke="#ffd699"></path><path d="M332 263L382 350L401 268Z" fill="#f8ac55" stroke="#f8ac55"></path><path d="M816 350L875 262L794 298Z" fill="#fdce8b" stroke="#fdce8b"></path><path d="M970 146L897 68L874 129Z" fill="#f7a348" stroke="#f7a348"></path><path d="M332 0L332 50L383 65Z" fill="#f9b562" stroke="#f9b562"></path><path d="M339 159L249 141L328 223Z" fill="#ffd699" stroke="#ffd699"></path><path d="M941 203L874 129L872 225Z" fill="#fcc67d" stroke="#fcc67d"></path><path d="M874 129L897 68L783 81Z" fill="#fdce8b" stroke="#fdce8b"></path><path d="M411 0L332 0L383 65Z" fill="#f69a3b" stroke="#f69a3b"></path><path d="M332 50L249 141L339 159Z" fill="#fdce8b" stroke="#fdce8b"></path><path d="M897 68L872 0L783 81Z" fill="#ffd699" stroke="#ffd699"></path><path d="M332 263L325 350L382 350Z" fill="#f8ac55" stroke="#f8ac55"></path><path d="M251 350L325 350L332 263Z" fill="#fbbd70" stroke="#fbbd70"></path><path d="M226 212L332 263L328 223Z" fill="#fcc67d" stroke="#fcc67d"></path><path d="M816 350L882 350L875 262Z" fill="#f7a348" stroke="#f7a348"></path><path d="M875 262L941 203L872 225Z" fill="#f69a3b" stroke="#f69a3b"></path><path d="M978 262L941 203L875 262Z" fill="#f4902e" stroke="#f4902e"></path><path d="M241 69L249 141L332 50Z" fill="#fcc67d" stroke="#fcc67d"></path><path d="M941 203L970 146L874 129Z" fill="#f69a3b" stroke="#f69a3b"></path><path d="M897 68L975 0L872 0Z" fill="#fcc67d" stroke="#fcc67d"></path><path d="M1027 156L970 146L1026 201Z" fill="#ffd699" stroke="#ffd699"></path><path d="M332 0L241 69L332 50Z" fill="#fdce8b" stroke="#fdce8b"></path><path d="M171 192L226 212L249 141Z" fill="#fcc67d" stroke="#fcc67d"></path><path d="M249 141L226 212L328 223Z" fill="#f69a3b" stroke="#f69a3b"></path><path d="M882 350L943 350L875 262Z" fill="#f8ac55" stroke="#f8ac55"></path><path d="M943 350L978 262L875 262Z" fill="#f69a3b" stroke="#f69a3b"></path><path d="M1035 83L979 67L970 146Z" fill="#f8ac55" stroke="#f8ac55"></path><path d="M970 146L979 67L897 68Z" fill="#fcc67d" stroke="#fcc67d"></path><path d="M226 212L226 287L332 263Z" fill="#f8ac55" stroke="#f8ac55"></path><path d="M226 287L251 350L332 263Z" fill="#ffd699" stroke="#ffd699"></path><path d="M979 67L975 0L897 68Z" fill="#f27c0d" stroke="#f27c0d"></path><path d="M332 0L226 0L241 69Z" fill="#f27c0d" stroke="#f27c0d"></path><path d="M241 69L177 125L249 141Z" fill="#f7a348" stroke="#f7a348"></path><path d="M1026 201L970 146L941 203Z" fill="#fbbd70" stroke="#fbbd70"></path><path d="M979 67L1030 0L975 0Z" fill="#f69a3b" stroke="#f69a3b"></path><path d="M1026 201L941 203L978 262Z" fill="#f9b562" stroke="#f9b562"></path><path d="M1030 297L1026 201L978 262Z" fill="#f4902e" stroke="#f4902e"></path><path d="M148 72L177 125L241 69Z" fill="#f8ac55" stroke="#f8ac55"></path><path d="M226 212L157 294L226 287Z" fill="#fcc67d" stroke="#fcc67d"></path><path d="M177 125L171 192L249 141Z" fill="#ffd699" stroke="#ffd699"></path><path d="M226 287L163 350L251 350Z" fill="#f27c0d" stroke="#f27c0d"></path><path d="M1122 75L1035 83L1136 138Z" fill="#f4902e" stroke="#f4902e"></path><path d="M1027 156L1035 83L970 146Z" fill="#fdce8b" stroke="#fdce8b"></path><path d="M943 350L1030 297L978 262Z" fill="#f3861f" stroke="#f3861f"></path><path d="M1026 201L1100 195L1027 156Z" fill="#f3861f" stroke="#f3861f"></path><path d="M1035 83L1030 0L979 67Z" fill="#f4902e" stroke="#f4902e"></path><path d="M91 274L157 294L171 192Z" fill="#f7a348" stroke="#f7a348"></path><path d="M171 192L157 294L226 212Z" fill="#fbbd70" stroke="#fbbd70"></path><path d="M166 0L148 72L241 69Z" fill="#fbbd70" stroke="#fbbd70"></path><path d="M62 121L63 210L171 192Z" fill="#f69a3b" stroke="#f69a3b"></path><path d="M226 0L166 0L241 69Z" fill="#ffd699" stroke="#ffd699"></path><path d="M943 350L1036 350L1030 297Z" fill="#f69a3b" stroke="#f69a3b"></path><path d="M1104 261L1100 195L1026 201Z" fill="#f8ac55" stroke="#f8ac55"></path><path d="M157 294L163 350L226 287Z" fill="#f27c0d" stroke="#f27c0d"></path><path d="M1104 261L1026 201L1030 297Z" fill="#f7a348" stroke="#f7a348"></path><path d="M1035 83L1100 0L1030 0Z" fill="#fbbd70" stroke="#fbbd70"></path><path d="M1120 350L1104 261L1030 297Z" fill="#f27c0d" stroke="#f27c0d"></path><path d="M63 210L91 274L171 192Z" fill="#fdce8b" stroke="#fdce8b"></path><path d="M157 294L98 350L163 350Z" fill="#f4902e" stroke="#f4902e"></path><path d="M171 192L177 125L62 121Z" fill="#f7a348" stroke="#f7a348"></path><path d="M1035 83L1027 156L1136 138Z" fill="#f27c0d" stroke="#f27c0d"></path><path d="M1122 75L1100 0L1035 83Z" fill="#fbbd70" stroke="#fbbd70"></path><path d="M1136 138L1027 156L1100 195Z" fill="#f4902e" stroke="#f4902e"></path><path d="M1200 152L1136 138L1200 210Z" fill="#fdce8b" stroke="#fdce8b"></path><path d="M91 274L98 350L157 294Z" fill="#fcc67d" stroke="#fcc67d"></path><path d="M62 121L177 125L148 72Z" fill="#f7a348" stroke="#f7a348"></path><path d="M91 274L0 350L98 350Z" fill="#f27c0d" stroke="#f27c0d"></path><path d="M62 86L62 121L148 72Z" fill="#f3861f" stroke="#f3861f"></path><path d="M69 0L62 86L148 72Z" fill="#f69a3b" stroke="#f69a3b"></path><path d="M1036 350L1120 350L1030 297Z" fill="#ffd699" stroke="#ffd699"></path><path d="M1200 210L1136 138L1100 195Z" fill="#fdce8b" stroke="#fdce8b"></path><path d="M166 0L69 0L148 72Z" fill="#f27c0d" stroke="#f27c0d"></path><path d="M1200 210L1100 195L1104 261Z" fill="#fcc67d" stroke="#fcc67d"></path><path d="M1136 138L1200 68L1122 75Z" fill="#f9b562" stroke="#f9b562"></path><path d="M1122 75L1200 0L1100 0Z" fill="#f9b562" stroke="#f9b562"></path><path d="M1200 273L1200 210L1104 261Z" fill="#fdce8b" stroke="#fdce8b"></path><path d="M0 70L0 135L62 86Z" fill="#f27c0d" stroke="#f27c0d"></path><path d="M62 86L0 135L62 121Z" fill="#f8ac55" stroke="#f8ac55"></path><path d="M62 121L0 135L63 210Z" fill="#f27c0d" stroke="#f27c0d"></path><path d="M63 210L0 275L91 274Z" fill="#ffd699" stroke="#ffd699"></path><path d="M0 135L0 201L63 210Z" fill="#fdce8b" stroke="#fdce8b"></path><path d="M1200 152L1200 68L1136 138Z" fill="#fdce8b" stroke="#fdce8b"></path><path d="M1120 350L1200 273L1104 261Z" fill="#f8ac55" stroke="#f8ac55"></path><path d="M69 0L0 70L62 86Z" fill="#fcc67d" stroke="#fcc67d"></path><path d="M0 201L0 275L63 210Z" fill="#f3861f" stroke="#f3861f"></path><path d="M1200 68L1200 0L1122 75Z" fill="#fdce8b" stroke="#fdce8b"></path><path d="M69 0L0 0L0 70Z" fill="#fdce8b" stroke="#fdce8b"></path><path d="M1120 350L1200 350L1200 273Z" fill="#f3861f" stroke="#f3861f"></path><path d="M0 275L0 350L91 274Z" fill="#f69a3b" stroke="#f69a3b"></path></g></svg>