<svg id="visual" viewBox="0 0 1200 350" width="1200" height="350" xmlns="http://www.w3.org/2000/svg" xmlns:xlink="http://www.w3.org/1999/xlink" version="1.1"><g stroke-width="1" stroke-linejoin="bevel"><path d="M575 199L648 195L568 146Z" fill="#f7a348" stroke="#f7a348"></path><path d="M648 195L651 144L568 146Z" fill="#f7a348" stroke="#f7a348"></path><path d="M651 144L643 72L568 146Z" fill="#fcc67d" stroke="#fcc67d"></path><path d="M575 199L642 267L648 195Z" fill="#fbbd70" stroke="#fbbd70"></path><path d="M497 286L575 267L575 199Z" fill="#f69a3b" stroke="#f69a3b"></path><path d="M575 199L575 267L642 267Z" fill="#f3861f" stroke="#f3861f"></path><path d="M643 72L576 64L568 146Z" fill="#f69a3b" stroke="#f69a3b"></path><path d="M648 195L731 149L651 144Z" fill="#fcc67d" stroke="#fcc67d"></path><path d="M651 144L732 80L643 72Z" fill="#f4902e" stroke="#f4902e"></path><path d="M732 195L731 149L648 195Z" fill="#fdce8b" stroke="#fdce8b"></path><path d="M704 263L732 195L648 195Z" fill="#f9b562" stroke="#f9b562"></path><path d="M642 267L704 263L648 195Z" fill="#fbbd70" stroke="#fbbd70"></path><path d="M492 66L475 122L568 146Z" fill="#f27c0d" stroke="#f27c0d"></path><path d="M568 146L467 197L575 199Z" fill="#ffd699" stroke="#ffd699"></path><path d="M475 122L467 197L568 146Z" fill="#ffd699" stroke="#ffd699"></path><path d="M731 149L732 80L651 144Z" fill="#f7a348" stroke="#f7a348"></path><path d="M643 72L640 0L576 64Z" fill="#fbbd70" stroke="#fbbd70"></path><path d="M781 156L732 80L731 149Z" fill="#f4902e" stroke="#f4902e"></path><path d="M576 64L492 66L568 146Z" fill="#f69a3b" stroke="#f69a3b"></path><path d="M467 197L497 286L575 199Z" fill="#f8ac55" stroke="#f8ac55"></path><path d="M575 267L628 350L642 267Z" fill="#ffd699" stroke="#ffd699"></path><path d="M642 267L703 350L704 263Z" fill="#f69a3b" stroke="#f69a3b"></path><path d="M711 0L640 0L643 72Z" fill="#f27c0d" stroke="#f27c0d"></path><path d="M576 64L563 0L492 66Z" fill="#f9b562" stroke="#f9b562"></path><path d="M816 199L781 156L732 195Z" fill="#fdce8b" stroke="#fdce8b"></path><path d="M732 195L781 156L731 149Z" fill="#fdce8b" stroke="#fdce8b"></path><path d="M640 0L563 0L576 64Z" fill="#f8ac55" stroke="#f8ac55"></path><path d="M564 350L628 350L575 267Z" fill="#fcc67d" stroke="#fcc67d"></path><path d="M497 286L564 350L575 267Z" fill="#f3861f" stroke="#f3861f"></path><path d="M787 0L711 0L732 80Z" fill="#f9b562" stroke="#f9b562"></path><path d="M732 80L711 0L643 72Z" fill="#f8ac55" stroke="#f8ac55"></path><path d="M628 350L703 350L642 267Z" fill="#f7a348" stroke="#f7a348"></path><path d="M799 267L816 199L732 195Z" fill="#f7a348" stroke="#f7a348"></path><path d="M799 267L732 195L704 263Z" fill="#fbbd70" stroke="#fbbd70"></path><path d="M781 156L816 81L732 80Z" fill="#f3861f" stroke="#f3861f"></path><path d="M398 137L402 210L467 197Z" fill="#f9b562" stroke="#f9b562"></path><path d="M467 197L409 284L497 286Z" fill="#fcc67d" stroke="#fcc67d"></path><path d="M497 286L460 350L564 350Z" fill="#fdce8b" stroke="#fdce8b"></path><path d="M398 137L467 197L475 122Z" fill="#f3861f" stroke="#f3861f"></path><path d="M780 350L799 267L704 263Z" fill="#ffd699" stroke="#ffd699"></path><path d="M563 0L477 0L492 66Z" fill="#f9b562" stroke="#f9b562"></path><path d="M385 80L398 137L475 122Z" fill="#f27c0d" stroke="#f27c0d"></path><path d="M385 80L475 122L492 66Z" fill="#fbbd70" stroke="#fbbd70"></path><path d="M866 155L816 81L781 156Z" fill="#fcc67d" stroke="#fcc67d"></path><path d="M402 210L409 284L467 197Z" fill="#fbbd70" stroke="#fbbd70"></path><path d="M409 284L460 350L497 286Z" fill="#fbbd70" stroke="#fbbd70"></path><path d="M399 0L385 80L492 66Z" fill="#f7a348" stroke="#f7a348"></path><path d="M398 137L326 195L402 210Z" fill="#ffd699" stroke="#ffd699"></path><path d="M331 350L409 350L409 284Z" fill="#fcc67d" stroke="#fcc67d"></path><path d="M816 81L787 0L732 80Z" fill="#fdce8b" stroke="#fdce8b"></path><path d="M703 350L780 350L704 263Z" fill="#f4902e" stroke="#f4902e"></path><path d="M877 219L866 155L816 199Z" fill="#fbbd70" stroke="#fbbd70"></path><path d="M816 199L866 155L781 156Z" fill="#f9b562" stroke="#f9b562"></path><path d="M816 81L884 0L787 0Z" fill="#fdce8b" stroke="#fdce8b"></path><path d="M877 219L816 199L799 267Z" fill="#f7a348" stroke="#f7a348"></path><path d="M477 0L399 0L492 66Z" fill="#ffd699" stroke="#ffd699"></path><path d="M409 284L409 350L460 350Z" fill="#f27c0d" stroke="#f27c0d"></path><path d="M339 268L409 284L402 210Z" fill="#f27c0d" stroke="#f27c0d"></path><path d="M892 265L877 219L799 267Z" fill="#f27c0d" stroke="#f27c0d"></path><path d="M316 127L398 137L385 80Z" fill="#f7a348" stroke="#f7a348"></path><path d="M316 127L326 195L398 137Z" fill="#f69a3b" stroke="#f69a3b"></path><path d="M955 129L887 87L866 155Z" fill="#f7a348" stroke="#f7a348"></path><path d="M866 155L887 87L816 81Z" fill="#f27c0d" stroke="#f27c0d"></path><path d="M326 195L339 268L402 210Z" fill="#f7a348" stroke="#f7a348"></path><path d="M300 55L316 127L385 80Z" fill="#f9b562" stroke="#f9b562"></path><path d="M887 350L892 265L799 267Z" fill="#f3861f" stroke="#f3861f"></path><path d="M877 219L940 193L866 155Z" fill="#f3861f" stroke="#f3861f"></path><path d="M887 87L884 0L816 81Z" fill="#f7a348" stroke="#f7a348"></path><path d="M399 0L333 0L385 80Z" fill="#f3861f" stroke="#f3861f"></path><path d="M333 0L300 55L385 80Z" fill="#fdce8b" stroke="#fdce8b"></path><path d="M316 127L243 209L326 195Z" fill="#f27c0d" stroke="#f27c0d"></path><path d="M238 293L331 350L339 268Z" fill="#f9b562" stroke="#f9b562"></path><path d="M892 265L940 193L877 219Z" fill="#fcc67d" stroke="#fcc67d"></path><path d="M887 87L967 56L884 0Z" fill="#f9b562" stroke="#f9b562"></path><path d="M780 350L887 350L799 267Z" fill="#fdce8b" stroke="#fdce8b"></path><path d="M892 265L947 275L940 193Z" fill="#fdce8b" stroke="#fdce8b"></path><path d="M243 209L339 268L326 195Z" fill="#f27c0d" stroke="#f27c0d"></path><path d="M339 268L331 350L409 284Z" fill="#fcc67d" stroke="#fcc67d"></path><path d="M940 193L955 129L866 155Z" fill="#f7a348" stroke="#f7a348"></path><path d="M887 350L947 275L892 265Z" fill="#ffd699" stroke="#ffd699"></path><path d="M940 193L1027 214L955 129Z" fill="#fbbd70" stroke="#fbbd70"></path><path d="M222 135L243 209L316 127Z" fill="#f69a3b" stroke="#f69a3b"></path><path d="M1033 77L967 56L955 129Z" fill="#f69a3b" stroke="#f69a3b"></path><path d="M955 129L967 56L887 87Z" fill="#f3861f" stroke="#f3861f"></path><path d="M228 72L316 127L300 55Z" fill="#f9b562" stroke="#f9b562"></path><path d="M228 72L222 135L316 127Z" fill="#f27c0d" stroke="#f27c0d"></path><path d="M166 282L238 293L243 209Z" fill="#f8ac55" stroke="#f8ac55"></path><path d="M243 209L238 293L339 268Z" fill="#f7a348" stroke="#f7a348"></path><path d="M247 0L228 72L300 55Z" fill="#f4902e" stroke="#f4902e"></path><path d="M967 56L971 0L884 0Z" fill="#fbbd70" stroke="#fbbd70"></path><path d="M333 0L247 0L300 55Z" fill="#fbbd70" stroke="#fbbd70"></path><path d="M887 350L973 350L947 275Z" fill="#f4902e" stroke="#f4902e"></path><path d="M947 275L1027 214L940 193Z" fill="#f3861f" stroke="#f3861f"></path><path d="M967 56L1020 0L971 0Z" fill="#f3861f" stroke="#f3861f"></path><path d="M238 293L246 350L331 350Z" fill="#f9b562" stroke="#f9b562"></path><path d="M1037 274L1027 214L947 275Z" fill="#fcc67d" stroke="#fcc67d"></path><path d="M1041 127L1033 77L955 129Z" fill="#f3861f" stroke="#f3861f"></path><path d="M1027 214L1041 127L955 129Z" fill="#f9b562" stroke="#f9b562"></path><path d="M973 350L1037 274L947 275Z" fill="#ffd699" stroke="#ffd699"></path><path d="M1027 214L1101 193L1041 127Z" fill="#fcc67d" stroke="#fcc67d"></path><path d="M1033 77L1020 0L967 56Z" fill="#fbbd70" stroke="#fbbd70"></path><path d="M149 59L164 124L228 72Z" fill="#fbbd70" stroke="#fbbd70"></path><path d="M228 72L164 124L222 135Z" fill="#f8ac55" stroke="#f8ac55"></path><path d="M222 135L163 215L243 209Z" fill="#f27c0d" stroke="#f27c0d"></path><path d="M238 293L166 282L246 350Z" fill="#f27c0d" stroke="#f27c0d"></path><path d="M164 124L163 215L222 135Z" fill="#f69a3b" stroke="#f69a3b"></path><path d="M163 215L166 282L243 209Z" fill="#fbbd70" stroke="#fbbd70"></path><path d="M247 0L176 0L228 72Z" fill="#fdce8b" stroke="#fdce8b"></path><path d="M176 0L149 59L228 72Z" fill="#f69a3b" stroke="#f69a3b"></path><path d="M164 124L93 141L163 215Z" fill="#fcc67d" stroke="#fcc67d"></path><path d="M71 269L143 350L166 282Z" fill="#f27c0d" stroke="#f27c0d"></path><path d="M973 350L1049 350L1037 274Z" fill="#fdce8b" stroke="#fdce8b"></path><path d="M1037 274L1101 193L1027 214Z" fill="#fcc67d" stroke="#fcc67d"></path><path d="M1123 268L1101 193L1037 274Z" fill="#fbbd70" stroke="#fbbd70"></path><path d="M1041 127L1110 70L1033 77Z" fill="#fdce8b" stroke="#fdce8b"></path><path d="M1033 77L1110 70L1020 0Z" fill="#fbbd70" stroke="#fbbd70"></path><path d="M71 269L166 282L163 215Z" fill="#f8ac55" stroke="#f8ac55"></path><path d="M166 282L143 350L246 350Z" fill="#f9b562" stroke="#f9b562"></path><path d="M1136 146L1110 70L1041 127Z" fill="#f27c0d" stroke="#f27c0d"></path><path d="M91 81L164 124L149 59Z" fill="#fbbd70" stroke="#fbbd70"></path><path d="M91 81L93 141L164 124Z" fill="#fbbd70" stroke="#fbbd70"></path><path d="M1049 350L1123 268L1037 274Z" fill="#f7a348" stroke="#f7a348"></path><path d="M1101 193L1136 146L1041 127Z" fill="#f9b562" stroke="#f9b562"></path><path d="M84 0L91 81L149 59Z" fill="#ffd699" stroke="#ffd699"></path><path d="M1200 154L1136 146L1200 203Z" fill="#f7a348" stroke="#f7a348"></path><path d="M1200 69L1121 0L1110 70Z" fill="#f27c0d" stroke="#f27c0d"></path><path d="M1110 70L1121 0L1020 0Z" fill="#ffd699" stroke="#ffd699"></path><path d="M64 222L71 269L163 215Z" fill="#f3861f" stroke="#f3861f"></path><path d="M64 222L163 215L93 141Z" fill="#f9b562" stroke="#f9b562"></path><path d="M0 129L64 222L93 141Z" fill="#f9b562" stroke="#f9b562"></path><path d="M176 0L84 0L149 59Z" fill="#fdce8b" stroke="#fdce8b"></path><path d="M91 81L0 129L93 141Z" fill="#fcc67d" stroke="#fcc67d"></path><path d="M1049 350L1139 350L1123 268Z" fill="#f4902e" stroke="#f4902e"></path><path d="M1200 203L1136 146L1101 193Z" fill="#fcc67d" stroke="#fcc67d"></path><path d="M0 350L76 350L71 269Z" fill="#f4902e" stroke="#f4902e"></path><path d="M71 269L76 350L143 350Z" fill="#f8ac55" stroke="#f8ac55"></path><path d="M1200 203L1101 193L1123 268Z" fill="#ffd699" stroke="#ffd699"></path><path d="M1136 146L1200 69L1110 70Z" fill="#fdce8b" stroke="#fdce8b"></path><path d="M1200 274L1200 203L1123 268Z" fill="#f69a3b" stroke="#f69a3b"></path><path d="M1200 154L1200 69L1136 146Z" fill="#f27c0d" stroke="#f27c0d"></path><path d="M1139 350L1200 274L1123 268Z" fill="#f9b562" stroke="#f9b562"></path><path d="M0 65L0 129L91 81Z" fill="#fbbd70" stroke="#fbbd70"></path><path d="M64 222L0 266L71 269Z" fill="#fcc67d" stroke="#fcc67d"></path><path d="M0 129L0 222L64 222Z" fill="#fdce8b" stroke="#fdce8b"></path><path d="M1200 69L1200 0L1121 0Z" fill="#fbbd70" stroke="#fbbd70"></path><path d="M1139 350L1200 350L1200 274Z" fill="#fcc67d" stroke="#fcc67d"></path><path d="M0 222L0 266L64 222Z" fill="#f7a348" stroke="#f7a348"></path><path d="M84 0L0 65L91 81Z" fill="#f4902e" stroke="#f4902e"></path><path d="M84 0L0 0L0 65Z" fill="#f8ac55" stroke="#f8ac55"></path><path d="M0 266L0 350L71 269Z" fill="#f8ac55" stroke="#f8ac55"></path></g></svg>