<svg id="visual" viewBox="0 0 1200 350" width="1200" height="350" xmlns="http://www.w3.org/2000/svg" xmlns:xlink="http://www.w3.org/1999/xlink" version="1.1"><g stroke-width="1" stroke-linejoin="bevel"><path d="M579 217L659 262L652 218Z" fill="#f8ac55" stroke="#f8ac55"></path><path d="M579 217L556 292L659 262Z" fill="#f3861f" stroke="#f3861f"></path><path d="M556 292L630 350L659 262Z" fill="#f8ac55" stroke="#f8ac55"></path><path d="M739 207L658 150L652 218Z" fill="#f8ac55" stroke="#f8ac55"></path><path d="M652 218L658 150L579 217Z" fill="#fcc67d" stroke="#fcc67d"></path><path d="M658 150L558 143L579 217Z" fill="#f3861f" stroke="#f3861f"></path><path d="M579 217L497 217L556 292Z" fill="#fdce8b" stroke="#fdce8b"></path><path d="M556 292L556 350L630 350Z" fill="#f69a3b" stroke="#f69a3b"></path><path d="M558 143L497 217L579 217Z" fill="#f69a3b" stroke="#f69a3b"></path><path d="M556 292L476 283L556 350Z" fill="#f3861f" stroke="#f3861f"></path><path d="M737 350L739 277L659 262Z" fill="#fdce8b" stroke="#fdce8b"></path><path d="M659 262L739 207L652 218Z" fill="#f27c0d" stroke="#f27c0d"></path><path d="M739 277L739 207L659 262Z" fill="#f27c0d" stroke="#f27c0d"></path><path d="M497 217L476 283L556 292Z" fill="#fbbd70" stroke="#fbbd70"></path><path d="M739 207L738 154L658 150Z" fill="#f69a3b" stroke="#f69a3b"></path><path d="M658 150L653 64L558 143Z" fill="#fbbd70" stroke="#fbbd70"></path><path d="M630 350L737 350L659 262Z" fill="#ffd699" stroke="#ffd699"></path><path d="M811 277L782 192L739 207Z" fill="#ffd699" stroke="#ffd699"></path><path d="M739 207L782 192L738 154Z" fill="#f27c0d" stroke="#f27c0d"></path><path d="M811 277L739 207L739 277Z" fill="#f69a3b" stroke="#f69a3b"></path><path d="M558 143L468 142L497 217Z" fill="#f3861f" stroke="#f3861f"></path><path d="M416 218L415 263L476 283Z" fill="#f4902e" stroke="#f4902e"></path><path d="M415 263L467 350L476 283Z" fill="#fdce8b" stroke="#fdce8b"></path><path d="M476 283L467 350L556 350Z" fill="#f4902e" stroke="#f4902e"></path><path d="M739 56L658 150L738 154Z" fill="#fbbd70" stroke="#fbbd70"></path><path d="M739 56L653 64L658 150Z" fill="#f9b562" stroke="#f9b562"></path><path d="M558 143L461 73L468 142Z" fill="#f8ac55" stroke="#f8ac55"></path><path d="M788 350L811 277L739 277Z" fill="#f27c0d" stroke="#f27c0d"></path><path d="M876 157L786 142L782 192Z" fill="#f69a3b" stroke="#f69a3b"></path><path d="M782 192L786 142L738 154Z" fill="#fbbd70" stroke="#fbbd70"></path><path d="M416 218L476 283L497 217Z" fill="#f69a3b" stroke="#f69a3b"></path><path d="M468 142L416 218L497 217Z" fill="#f69a3b" stroke="#f69a3b"></path><path d="M737 350L788 350L739 277Z" fill="#f7a348" stroke="#f7a348"></path><path d="M653 64L551 51L558 143Z" fill="#f69a3b" stroke="#f69a3b"></path><path d="M786 142L739 56L738 154Z" fill="#f27c0d" stroke="#f27c0d"></path><path d="M653 64L650 0L551 51Z" fill="#fdce8b" stroke="#fdce8b"></path><path d="M551 51L461 73L558 143Z" fill="#fdce8b" stroke="#fdce8b"></path><path d="M468 142L401 140L416 218Z" fill="#fbbd70" stroke="#fbbd70"></path><path d="M461 73L401 140L468 142Z" fill="#ffd699" stroke="#ffd699"></path><path d="M307 202L323 298L415 263Z" fill="#fbbd70" stroke="#fbbd70"></path><path d="M323 298L393 350L415 263Z" fill="#f4902e" stroke="#f4902e"></path><path d="M415 263L393 350L467 350Z" fill="#fdce8b" stroke="#fdce8b"></path><path d="M725 0L650 0L653 64Z" fill="#f69a3b" stroke="#f69a3b"></path><path d="M551 51L494 0L461 73Z" fill="#f27c0d" stroke="#f27c0d"></path><path d="M650 0L550 0L551 51Z" fill="#f27c0d" stroke="#f27c0d"></path><path d="M810 0L725 0L739 56Z" fill="#f9b562" stroke="#f9b562"></path><path d="M739 56L725 0L653 64Z" fill="#fcc67d" stroke="#fcc67d"></path><path d="M876 350L885 295L811 277Z" fill="#f27c0d" stroke="#f27c0d"></path><path d="M891 205L876 157L782 192Z" fill="#f4902e" stroke="#f4902e"></path><path d="M786 142L813 53L739 56Z" fill="#fdce8b" stroke="#fdce8b"></path><path d="M550 0L494 0L551 51Z" fill="#fcc67d" stroke="#fcc67d"></path><path d="M461 73L410 52L401 140Z" fill="#f7a348" stroke="#f7a348"></path><path d="M891 205L782 192L811 277Z" fill="#f69a3b" stroke="#f69a3b"></path><path d="M876 157L813 53L786 142Z" fill="#f7a348" stroke="#f7a348"></path><path d="M885 295L891 205L811 277Z" fill="#f8ac55" stroke="#f8ac55"></path><path d="M788 350L876 350L811 277Z" fill="#f69a3b" stroke="#f69a3b"></path><path d="M494 0L410 52L461 73Z" fill="#f27c0d" stroke="#f27c0d"></path><path d="M307 202L415 263L416 218Z" fill="#fbbd70" stroke="#fbbd70"></path><path d="M307 202L416 218L314 157Z" fill="#fdce8b" stroke="#fdce8b"></path><path d="M323 298L326 350L393 350Z" fill="#fcc67d" stroke="#fcc67d"></path><path d="M314 157L416 218L401 140Z" fill="#fcc67d" stroke="#fcc67d"></path><path d="M323 298L223 350L326 350Z" fill="#f69a3b" stroke="#f69a3b"></path><path d="M315 80L314 157L401 140Z" fill="#fbbd70" stroke="#fbbd70"></path><path d="M870 53L810 0L813 53Z" fill="#f3861f" stroke="#f3861f"></path><path d="M813 53L810 0L739 56Z" fill="#fbbd70" stroke="#fbbd70"></path><path d="M876 157L870 53L813 53Z" fill="#fdce8b" stroke="#fdce8b"></path><path d="M941 130L870 53L876 157Z" fill="#f4902e" stroke="#f4902e"></path><path d="M494 0L408 0L410 52Z" fill="#fcc67d" stroke="#fcc67d"></path><path d="M410 52L315 80L401 140Z" fill="#f4902e" stroke="#f4902e"></path><path d="M941 350L941 273L885 295Z" fill="#f9b562" stroke="#f9b562"></path><path d="M885 295L941 273L891 205Z" fill="#f27c0d" stroke="#f27c0d"></path><path d="M891 205L941 130L876 157Z" fill="#fbbd70" stroke="#fbbd70"></path><path d="M876 350L941 350L885 295Z" fill="#f3861f" stroke="#f3861f"></path><path d="M311 0L315 80L410 52Z" fill="#f27c0d" stroke="#f27c0d"></path><path d="M314 157L229 199L307 202Z" fill="#fcc67d" stroke="#fcc67d"></path><path d="M974 190L941 130L891 205Z" fill="#f3861f" stroke="#f3861f"></path><path d="M941 273L974 190L891 205Z" fill="#fdce8b" stroke="#fdce8b"></path><path d="M1024 277L974 190L941 273Z" fill="#f27c0d" stroke="#f27c0d"></path><path d="M945 58L886 0L870 53Z" fill="#f8ac55" stroke="#f8ac55"></path><path d="M870 53L886 0L810 0Z" fill="#ffd699" stroke="#ffd699"></path><path d="M945 58L870 53L941 130Z" fill="#fbbd70" stroke="#fbbd70"></path><path d="M1052 61L945 58L941 130Z" fill="#ffd699" stroke="#ffd699"></path><path d="M226 123L229 199L314 157Z" fill="#f8ac55" stroke="#f8ac55"></path><path d="M307 202L226 276L323 298Z" fill="#fbbd70" stroke="#fbbd70"></path><path d="M229 199L226 276L307 202Z" fill="#f7a348" stroke="#f7a348"></path><path d="M408 0L311 0L410 52Z" fill="#ffd699" stroke="#ffd699"></path><path d="M315 80L226 123L314 157Z" fill="#f27c0d" stroke="#f27c0d"></path><path d="M152 278L223 350L226 276Z" fill="#fdce8b" stroke="#fdce8b"></path><path d="M226 276L223 350L323 298Z" fill="#f27c0d" stroke="#f27c0d"></path><path d="M220 85L226 123L315 80Z" fill="#fbbd70" stroke="#fbbd70"></path><path d="M229 199L163 206L226 276Z" fill="#f3861f" stroke="#f3861f"></path><path d="M941 350L1024 277L941 273Z" fill="#ffd699" stroke="#ffd699"></path><path d="M1022 0L968 0L945 58Z" fill="#f9b562" stroke="#f9b562"></path><path d="M244 0L220 85L315 80Z" fill="#f69a3b" stroke="#f69a3b"></path><path d="M157 156L163 206L229 199Z" fill="#f4902e" stroke="#f4902e"></path><path d="M945 58L968 0L886 0Z" fill="#f69a3b" stroke="#f69a3b"></path><path d="M1057 142L941 130L974 190Z" fill="#f8ac55" stroke="#f8ac55"></path><path d="M1024 277L1054 223L974 190Z" fill="#ffd699" stroke="#ffd699"></path><path d="M311 0L244 0L315 80Z" fill="#ffd699" stroke="#ffd699"></path><path d="M157 156L226 123L220 85Z" fill="#f8ac55" stroke="#f8ac55"></path><path d="M157 156L229 199L226 123Z" fill="#f9b562" stroke="#f9b562"></path><path d="M1054 223L1057 142L974 190Z" fill="#f8ac55" stroke="#f8ac55"></path><path d="M941 350L1058 350L1024 277Z" fill="#f3861f" stroke="#f3861f"></path><path d="M1024 277L1118 269L1054 223Z" fill="#f7a348" stroke="#f7a348"></path><path d="M1054 223L1111 191L1057 142Z" fill="#fbbd70" stroke="#fbbd70"></path><path d="M163 206L152 278L226 276Z" fill="#ffd699" stroke="#ffd699"></path><path d="M167 51L157 156L220 85Z" fill="#f3861f" stroke="#f3861f"></path><path d="M163 206L81 264L152 278Z" fill="#ffd699" stroke="#ffd699"></path><path d="M1057 142L1052 61L941 130Z" fill="#ffd699" stroke="#ffd699"></path><path d="M1052 61L1022 0L945 58Z" fill="#fdce8b" stroke="#fdce8b"></path><path d="M81 264L144 350L152 278Z" fill="#ffd699" stroke="#ffd699"></path><path d="M152 278L144 350L223 350Z" fill="#f4902e" stroke="#f4902e"></path><path d="M244 0L167 51L220 85Z" fill="#fcc67d" stroke="#fcc67d"></path><path d="M1057 142L1100 88L1052 61Z" fill="#f7a348" stroke="#f7a348"></path><path d="M1118 269L1111 191L1054 223Z" fill="#f8ac55" stroke="#f8ac55"></path><path d="M1058 350L1118 269L1024 277Z" fill="#f4902e" stroke="#f4902e"></path><path d="M1100 88L1108 124L1200 53Z" fill="#f7a348" stroke="#f7a348"></path><path d="M1111 191L1108 124L1057 142Z" fill="#fbbd70" stroke="#fbbd70"></path><path d="M1052 61L1116 0L1022 0Z" fill="#ffd699" stroke="#ffd699"></path><path d="M1108 124L1100 88L1057 142Z" fill="#fcc67d" stroke="#fcc67d"></path><path d="M244 0L159 0L167 51Z" fill="#fcc67d" stroke="#fcc67d"></path><path d="M74 194L163 206L157 156Z" fill="#fbbd70" stroke="#fbbd70"></path><path d="M74 194L81 264L163 206Z" fill="#f4902e" stroke="#f4902e"></path><path d="M1058 350L1131 350L1118 269Z" fill="#f9b562" stroke="#f9b562"></path><path d="M1118 269L1200 220L1111 191Z" fill="#fbbd70" stroke="#fbbd70"></path><path d="M94 126L157 156L167 51Z" fill="#f27c0d" stroke="#f27c0d"></path><path d="M75 87L94 126L167 51Z" fill="#f4902e" stroke="#f4902e"></path><path d="M94 126L74 194L157 156Z" fill="#f9b562" stroke="#f9b562"></path><path d="M0 285L71 350L81 264Z" fill="#fdce8b" stroke="#fdce8b"></path><path d="M81 264L71 350L144 350Z" fill="#fcc67d" stroke="#fcc67d"></path><path d="M1200 145L1108 124L1111 191Z" fill="#f27c0d" stroke="#f27c0d"></path><path d="M1200 53L1116 0L1100 88Z" fill="#f27c0d" stroke="#f27c0d"></path><path d="M1100 88L1116 0L1052 61Z" fill="#fcc67d" stroke="#fcc67d"></path><path d="M0 124L0 214L74 194Z" fill="#f3861f" stroke="#f3861f"></path><path d="M74 194L0 214L81 264Z" fill="#f4902e" stroke="#f4902e"></path><path d="M61 0L75 87L167 51Z" fill="#ffd699" stroke="#ffd699"></path><path d="M1200 295L1200 220L1118 269Z" fill="#fdce8b" stroke="#fdce8b"></path><path d="M1131 350L1200 295L1118 269Z" fill="#f8ac55" stroke="#f8ac55"></path><path d="M1200 220L1200 145L1111 191Z" fill="#f9b562" stroke="#f9b562"></path><path d="M1131 350L1200 350L1200 295Z" fill="#f27c0d" stroke="#f27c0d"></path><path d="M159 0L61 0L167 51Z" fill="#f27c0d" stroke="#f27c0d"></path><path d="M0 124L74 194L94 126Z" fill="#f7a348" stroke="#f7a348"></path><path d="M0 124L94 126L75 87Z" fill="#fcc67d" stroke="#fcc67d"></path><path d="M1200 145L1200 53L1108 124Z" fill="#f27c0d" stroke="#f27c0d"></path><path d="M0 214L0 285L81 264Z" fill="#ffd699" stroke="#ffd699"></path><path d="M0 285L0 350L71 350Z" fill="#f4902e" stroke="#f4902e"></path><path d="M0 71L0 124L75 87Z" fill="#f27c0d" stroke="#f27c0d"></path><path d="M1200 53L1200 0L1116 0Z" fill="#f9b562" stroke="#f9b562"></path><path d="M61 0L0 71L75 87Z" fill="#f9b562" stroke="#f9b562"></path><path d="M61 0L0 0L0 71Z" fill="#f4902e" stroke="#f4902e"></path></g></svg>