<svg id="visual" viewBox="0 0 1200 350" width="1200" height="350" xmlns="http://www.w3.org/2000/svg" xmlns:xlink="http://www.w3.org/1999/xlink" version="1.1"><g stroke-width="1" stroke-linejoin="bevel"><path d="M520.3 207.3L505.3 131.7L417 249.3Z" fill="#fbbd70" stroke="#fbbd70"></path><path d="M505.3 131.7L383 135.7L417 249.3Z" fill="#f8ac55" stroke="#f8ac55"></path><path d="M417 249.3L512.3 350L520.3 207.3Z" fill="#fcc67d" stroke="#fcc67d"></path><path d="M383 135.7L262.7 202.3L417 249.3Z" fill="#f4902e" stroke="#f4902e"></path><path d="M417 249.3L364 350L512.3 350Z" fill="#f27c0d" stroke="#f27c0d"></path><path d="M262.7 202.3L364 350L417 249.3Z" fill="#f69a3b" stroke="#f69a3b"></path><path d="M505.3 131.7L373 0L383 135.7Z" fill="#fcc67d" stroke="#fcc67d"></path><path d="M383 135.7L238.7 147.7L262.7 202.3Z" fill="#f4902e" stroke="#f4902e"></path><path d="M650.7 94.7L536.3 0L505.3 131.7Z" fill="#fdce8b" stroke="#fdce8b"></path><path d="M505.3 131.7L536.3 0L373 0Z" fill="#f4902e" stroke="#f4902e"></path><path d="M650.7 94.7L505.3 131.7L520.3 207.3Z" fill="#f69a3b" stroke="#f69a3b"></path><path d="M242.7 0L238.7 147.7L383 135.7Z" fill="#ffd699" stroke="#ffd699"></path><path d="M699.7 248.3L650.7 94.7L520.3 207.3Z" fill="#ffd699" stroke="#ffd699"></path><path d="M512.3 350L699.7 248.3L520.3 207.3Z" fill="#f4902e" stroke="#f4902e"></path><path d="M142.3 226.3L233.7 350L262.7 202.3Z" fill="#fcc67d" stroke="#fcc67d"></path><path d="M262.7 202.3L233.7 350L364 350Z" fill="#f8ac55" stroke="#f8ac55"></path><path d="M373 0L242.7 0L383 135.7Z" fill="#f4902e" stroke="#f4902e"></path><path d="M512.3 350L701.7 350L699.7 248.3Z" fill="#f7a348" stroke="#f7a348"></path><path d="M238.7 147.7L142.3 226.3L262.7 202.3Z" fill="#fbbd70" stroke="#fbbd70"></path><path d="M146.3 104.7L142.3 226.3L238.7 147.7Z" fill="#fdce8b" stroke="#fdce8b"></path><path d="M776 105.7L704.7 0L650.7 94.7Z" fill="#fcc67d" stroke="#fcc67d"></path><path d="M650.7 94.7L704.7 0L536.3 0Z" fill="#f9b562" stroke="#f9b562"></path><path d="M776 105.7L650.7 94.7L699.7 248.3Z" fill="#f4902e" stroke="#f4902e"></path><path d="M242.7 0L146.3 104.7L238.7 147.7Z" fill="#f69a3b" stroke="#f69a3b"></path><path d="M810 261.3L776 105.7L699.7 248.3Z" fill="#f69a3b" stroke="#f69a3b"></path><path d="M142.3 226.3L138.3 350L233.7 350Z" fill="#f27c0d" stroke="#f27c0d"></path><path d="M242.7 0L143.3 0L146.3 104.7Z" fill="#fdce8b" stroke="#fdce8b"></path><path d="M146.3 104.7L0 223.3L142.3 226.3Z" fill="#fbbd70" stroke="#fbbd70"></path><path d="M142.3 226.3L0 223.3L138.3 350Z" fill="#ffd699" stroke="#ffd699"></path><path d="M701.7 350L810 261.3L699.7 248.3Z" fill="#f27c0d" stroke="#f27c0d"></path><path d="M776 105.7L819 0L704.7 0Z" fill="#fbbd70" stroke="#fbbd70"></path><path d="M947.3 82.7L819 0L776 105.7Z" fill="#f8ac55" stroke="#f8ac55"></path><path d="M701.7 350L826 350L810 261.3Z" fill="#f9b562" stroke="#f9b562"></path><path d="M956.3 238.3L947.3 82.7L776 105.7Z" fill="#fdce8b" stroke="#fdce8b"></path><path d="M0 99.7L0 223.3L146.3 104.7Z" fill="#fcc67d" stroke="#fcc67d"></path><path d="M143.3 0L0 99.7L146.3 104.7Z" fill="#f27c0d" stroke="#f27c0d"></path><path d="M0 223.3L0 350L138.3 350Z" fill="#f3861f" stroke="#f3861f"></path><path d="M143.3 0L0 0L0 99.7Z" fill="#f27c0d" stroke="#f27c0d"></path><path d="M826 350L922.3 350L810 261.3Z" fill="#f7a348" stroke="#f7a348"></path><path d="M956.3 238.3L776 105.7L810 261.3Z" fill="#f7a348" stroke="#f7a348"></path><path d="M922.3 350L956.3 238.3L810 261.3Z" fill="#f69a3b" stroke="#f69a3b"></path><path d="M1047.7 88.7L949.3 0L947.3 82.7Z" fill="#fdce8b" stroke="#fdce8b"></path><path d="M947.3 82.7L949.3 0L819 0Z" fill="#f8ac55" stroke="#f8ac55"></path><path d="M1052.7 350L1046.7 236.3L956.3 238.3Z" fill="#fcc67d" stroke="#fcc67d"></path><path d="M956.3 238.3L1047.7 88.7L947.3 82.7Z" fill="#ffd699" stroke="#ffd699"></path><path d="M1046.7 236.3L1047.7 88.7L956.3 238.3Z" fill="#f7a348" stroke="#f7a348"></path><path d="M922.3 350L1052.7 350L956.3 238.3Z" fill="#f8ac55" stroke="#f8ac55"></path><path d="M1200 149.7L1100.7 0L1047.7 88.7Z" fill="#fbbd70" stroke="#fbbd70"></path><path d="M1200 149.7L1047.7 88.7L1046.7 236.3Z" fill="#fdce8b" stroke="#fdce8b"></path><path d="M1047.7 88.7L1100.7 0L949.3 0Z" fill="#f69a3b" stroke="#f69a3b"></path><path d="M1200 350L1200 204.3L1046.7 236.3Z" fill="#f69a3b" stroke="#f69a3b"></path><path d="M1200 204.3L1200 149.7L1046.7 236.3Z" fill="#fdce8b" stroke="#fdce8b"></path><path d="M1052.7 350L1200 350L1046.7 236.3Z" fill="#f3861f" stroke="#f3861f"></path><path d="M1200 149.7L1200 0L1100.7 0Z" fill="#fdce8b" stroke="#fdce8b"></path></g></svg>