<svg id="visual" viewBox="0 0 1200 350" width="1200" height="350" xmlns="http://www.w3.org/2000/svg" xmlns:xlink="http://www.w3.org/1999/xlink" version="1.1"><g stroke-width="1" stroke-linejoin="bevel"><path d="M640.7 136.7L547.3 152.7L536.3 238.3Z" fill="#f7a348" stroke="#f7a348"></path><path d="M536.3 238.3L681.7 261.3L640.7 136.7Z" fill="#f69a3b" stroke="#f69a3b"></path><path d="M536.3 238.3L571.3 350L681.7 261.3Z" fill="#fcc67d" stroke="#fcc67d"></path><path d="M547.3 152.7L433 215.3L536.3 238.3Z" fill="#f27c0d" stroke="#f27c0d"></path><path d="M536.3 238.3L395 350L571.3 350Z" fill="#f3861f" stroke="#f3861f"></path><path d="M571.3 350L695.7 350L681.7 261.3Z" fill="#fdce8b" stroke="#fdce8b"></path><path d="M777 350L790 231.3L681.7 261.3Z" fill="#ffd699" stroke="#ffd699"></path><path d="M681.7 261.3L790 231.3L640.7 136.7Z" fill="#f69a3b" stroke="#f69a3b"></path><path d="M791 0L630.7 0L640.7 136.7Z" fill="#fbbd70" stroke="#fbbd70"></path><path d="M640.7 136.7L560.3 0L547.3 152.7Z" fill="#f69a3b" stroke="#f69a3b"></path><path d="M547.3 152.7L417 85.7L433 215.3Z" fill="#f7a348" stroke="#f7a348"></path><path d="M630.7 0L560.3 0L640.7 136.7Z" fill="#ffd699" stroke="#ffd699"></path><path d="M790 231.3L803 119.7L640.7 136.7Z" fill="#ffd699" stroke="#ffd699"></path><path d="M560.3 0L417 85.7L547.3 152.7Z" fill="#fbbd70" stroke="#fbbd70"></path><path d="M695.7 350L777 350L681.7 261.3Z" fill="#f27c0d" stroke="#f27c0d"></path><path d="M790 231.3L906.3 242.3L803 119.7Z" fill="#fbbd70" stroke="#fbbd70"></path><path d="M304.7 238.3L395 350L433 215.3Z" fill="#f8ac55" stroke="#f8ac55"></path><path d="M433 215.3L395 350L536.3 238.3Z" fill="#ffd699" stroke="#ffd699"></path><path d="M803 119.7L791 0L640.7 136.7Z" fill="#fbbd70" stroke="#fbbd70"></path><path d="M560.3 0L407 0L417 85.7Z" fill="#fdce8b" stroke="#fdce8b"></path><path d="M417 85.7L304.7 238.3L433 215.3Z" fill="#f4902e" stroke="#f4902e"></path><path d="M274.7 77.7L304.7 238.3L417 85.7Z" fill="#fdce8b" stroke="#fdce8b"></path><path d="M904.3 350L906.3 242.3L790 231.3Z" fill="#f9b562" stroke="#f9b562"></path><path d="M803 119.7L924.3 0L791 0Z" fill="#f3861f" stroke="#f3861f"></path><path d="M777 350L904.3 350L790 231.3Z" fill="#f9b562" stroke="#f9b562"></path><path d="M407 0L274.7 77.7L417 85.7Z" fill="#f4902e" stroke="#f4902e"></path><path d="M1026.7 150.7L943.3 100.7L906.3 242.3Z" fill="#fdce8b" stroke="#fdce8b"></path><path d="M906.3 242.3L943.3 100.7L803 119.7Z" fill="#f4902e" stroke="#f4902e"></path><path d="M108.3 244.3L261.7 350L304.7 238.3Z" fill="#fdce8b" stroke="#fdce8b"></path><path d="M304.7 238.3L261.7 350L395 350Z" fill="#f69a3b" stroke="#f69a3b"></path><path d="M943.3 100.7L924.3 0L803 119.7Z" fill="#fcc67d" stroke="#fcc67d"></path><path d="M407 0L279.7 0L274.7 77.7Z" fill="#f9b562" stroke="#f9b562"></path><path d="M1058.7 230.3L1026.7 150.7L906.3 242.3Z" fill="#f3861f" stroke="#f3861f"></path><path d="M943.3 100.7L1043.7 0L924.3 0Z" fill="#fdce8b" stroke="#fdce8b"></path><path d="M904.3 350L1028.7 350L906.3 242.3Z" fill="#f8ac55" stroke="#f8ac55"></path><path d="M1028.7 350L1058.7 230.3L906.3 242.3Z" fill="#f3861f" stroke="#f3861f"></path><path d="M1026.7 150.7L1043.7 0L943.3 100.7Z" fill="#f8ac55" stroke="#f8ac55"></path><path d="M1200 102.7L1043.7 0L1026.7 150.7Z" fill="#fdce8b" stroke="#fdce8b"></path><path d="M117.3 95.7L108.3 244.3L304.7 238.3Z" fill="#fcc67d" stroke="#fcc67d"></path><path d="M117.3 95.7L304.7 238.3L274.7 77.7Z" fill="#ffd699" stroke="#ffd699"></path><path d="M127.3 0L117.3 95.7L274.7 77.7Z" fill="#f4902e" stroke="#f4902e"></path><path d="M108.3 244.3L123.3 350L261.7 350Z" fill="#fbbd70" stroke="#fbbd70"></path><path d="M279.7 0L127.3 0L274.7 77.7Z" fill="#f27c0d" stroke="#f27c0d"></path><path d="M1200 350L1200 210.3L1058.7 230.3Z" fill="#fcc67d" stroke="#fcc67d"></path><path d="M1058.7 230.3L1200 210.3L1026.7 150.7Z" fill="#ffd699" stroke="#ffd699"></path><path d="M0 116.7L0 197.3L117.3 95.7Z" fill="#f8ac55" stroke="#f8ac55"></path><path d="M117.3 95.7L0 197.3L108.3 244.3Z" fill="#f9b562" stroke="#f9b562"></path><path d="M108.3 244.3L0 350L123.3 350Z" fill="#f9b562" stroke="#f9b562"></path><path d="M1200 210.3L1200 102.7L1026.7 150.7Z" fill="#f69a3b" stroke="#f69a3b"></path><path d="M0 0L0 116.7L117.3 95.7Z" fill="#ffd699" stroke="#ffd699"></path><path d="M1028.7 350L1200 350L1058.7 230.3Z" fill="#f3861f" stroke="#f3861f"></path><path d="M0 197.3L0 350L108.3 244.3Z" fill="#f4902e" stroke="#f4902e"></path><path d="M1200 102.7L1200 0L1043.7 0Z" fill="#f27c0d" stroke="#f27c0d"></path><path d="M127.3 0L0 0L117.3 95.7Z" fill="#fbbd70" stroke="#fbbd70"></path></g></svg>