<svg id="visual" viewBox="0 0 1200 350" width="1200" height="350" xmlns="http://www.w3.org/2000/svg" xmlns:xlink="http://www.w3.org/1999/xlink" version="1.1"><g stroke-width="1" stroke-linejoin="bevel"><path d="M676.7 221.3L771 258.3L692.7 135.7Z" fill="#f3861f" stroke="#f3861f"></path><path d="M771 258.3L796 105.7L692.7 135.7Z" fill="#f3861f" stroke="#f3861f"></path><path d="M771 258.3L908.3 236.3L796 105.7Z" fill="#fcc67d" stroke="#fcc67d"></path><path d="M631.7 350L804 350L771 258.3Z" fill="#fdce8b" stroke="#fdce8b"></path><path d="M771 258.3L804 350L908.3 236.3Z" fill="#ffd699" stroke="#ffd699"></path><path d="M951.3 0L791 0L796 105.7Z" fill="#f3861f" stroke="#f3861f"></path><path d="M796 105.7L674.7 0L692.7 135.7Z" fill="#f8ac55" stroke="#f8ac55"></path><path d="M528.3 238.3L631.7 350L676.7 221.3Z" fill="#ffd699" stroke="#ffd699"></path><path d="M676.7 221.3L631.7 350L771 258.3Z" fill="#f7a348" stroke="#f7a348"></path><path d="M791 0L674.7 0L796 105.7Z" fill="#f69a3b" stroke="#f69a3b"></path><path d="M537.3 96.7L528.3 238.3L676.7 221.3Z" fill="#f8ac55" stroke="#f8ac55"></path><path d="M908.3 236.3L943.3 110.7L796 105.7Z" fill="#f7a348" stroke="#f7a348"></path><path d="M537.3 96.7L676.7 221.3L692.7 135.7Z" fill="#f27c0d" stroke="#f27c0d"></path><path d="M804 350L900.3 350L908.3 236.3Z" fill="#f7a348" stroke="#f7a348"></path><path d="M908.3 236.3L1028.7 265.3L943.3 110.7Z" fill="#f27c0d" stroke="#f27c0d"></path><path d="M674.7 0L537.3 96.7L692.7 135.7Z" fill="#ffd699" stroke="#ffd699"></path><path d="M528.3 238.3L557.3 350L631.7 350Z" fill="#f3861f" stroke="#f3861f"></path><path d="M674.7 0L562.3 0L537.3 96.7Z" fill="#f8ac55" stroke="#f8ac55"></path><path d="M943.3 110.7L951.3 0L796 105.7Z" fill="#fdce8b" stroke="#fdce8b"></path><path d="M900.3 350L1028.7 265.3L908.3 236.3Z" fill="#fdce8b" stroke="#fdce8b"></path><path d="M943.3 110.7L1044.7 76.7L951.3 0Z" fill="#ffd699" stroke="#ffd699"></path><path d="M1028.7 265.3L1044.7 76.7L943.3 110.7Z" fill="#f8ac55" stroke="#f8ac55"></path><path d="M562.3 0L412 107.7L537.3 96.7Z" fill="#f9b562" stroke="#f9b562"></path><path d="M537.3 96.7L412 107.7L528.3 238.3Z" fill="#ffd699" stroke="#ffd699"></path><path d="M528.3 238.3L383 350L557.3 350Z" fill="#f4902e" stroke="#f4902e"></path><path d="M900.3 350L1071.7 350L1028.7 265.3Z" fill="#f9b562" stroke="#f9b562"></path><path d="M1028.7 265.3L1200 212.3L1044.7 76.7Z" fill="#fdce8b" stroke="#fdce8b"></path><path d="M1044.7 76.7L1064.7 0L951.3 0Z" fill="#f3861f" stroke="#f3861f"></path><path d="M1200 85.7L1064.7 0L1044.7 76.7Z" fill="#ffd699" stroke="#ffd699"></path><path d="M412 107.7L374 246.3L528.3 238.3Z" fill="#f27c0d" stroke="#f27c0d"></path><path d="M374 246.3L383 350L528.3 238.3Z" fill="#f3861f" stroke="#f3861f"></path><path d="M562.3 0L364 0L412 107.7Z" fill="#f4902e" stroke="#f4902e"></path><path d="M412 107.7L241.7 153.7L374 246.3Z" fill="#f69a3b" stroke="#f69a3b"></path><path d="M1071.7 350L1200 212.3L1028.7 265.3Z" fill="#f8ac55" stroke="#f8ac55"></path><path d="M1200 212.3L1200 85.7L1044.7 76.7Z" fill="#f9b562" stroke="#f9b562"></path><path d="M364 0L302.7 0L412 107.7Z" fill="#f69a3b" stroke="#f69a3b"></path><path d="M374 246.3L251.7 350L383 350Z" fill="#f8ac55" stroke="#f8ac55"></path><path d="M1071.7 350L1200 350L1200 212.3Z" fill="#f7a348" stroke="#f7a348"></path><path d="M1200 85.7L1200 0L1064.7 0Z" fill="#f3861f" stroke="#f3861f"></path><path d="M302.7 0L241.7 153.7L412 107.7Z" fill="#f27c0d" stroke="#f27c0d"></path><path d="M241.7 153.7L232.7 248.3L374 246.3Z" fill="#f3861f" stroke="#f3861f"></path><path d="M232.7 248.3L251.7 350L374 246.3Z" fill="#f7a348" stroke="#f7a348"></path><path d="M157.3 0L159.3 136.7L241.7 153.7Z" fill="#f9b562" stroke="#f9b562"></path><path d="M241.7 153.7L159.3 136.7L232.7 248.3Z" fill="#f8ac55" stroke="#f8ac55"></path><path d="M232.7 248.3L159.3 350L251.7 350Z" fill="#f9b562" stroke="#f9b562"></path><path d="M111.3 212.3L159.3 350L232.7 248.3Z" fill="#ffd699" stroke="#ffd699"></path><path d="M302.7 0L157.3 0L241.7 153.7Z" fill="#ffd699" stroke="#ffd699"></path><path d="M159.3 136.7L111.3 212.3L232.7 248.3Z" fill="#f8ac55" stroke="#f8ac55"></path><path d="M0 219.3L111.3 212.3L0 114.7Z" fill="#f3861f" stroke="#f3861f"></path><path d="M0 114.7L111.3 212.3L159.3 136.7Z" fill="#f8ac55" stroke="#f8ac55"></path><path d="M111.3 212.3L0 350L159.3 350Z" fill="#fbbd70" stroke="#fbbd70"></path><path d="M157.3 0L0 114.7L159.3 136.7Z" fill="#fdce8b" stroke="#fdce8b"></path><path d="M0 219.3L0 350L111.3 212.3Z" fill="#fcc67d" stroke="#fcc67d"></path><path d="M157.3 0L0 0L0 114.7Z" fill="#ffd699" stroke="#ffd699"></path></g></svg>